<?xml version="1.0" standalone="no"?>
<!DOCTYPE svg PUBLIC "-//W3C//DTD SVG 20010904//EN"
 "http://www.w3.org/TR/2001/REC-SVG-20010904/DTD/svg10.dtd">
<svg version="1.0" xmlns="http://www.w3.org/2000/svg"
 width="1070.000000pt" height="917.000000pt" viewBox="0 0 1070.000000 917.000000"
 preserveAspectRatio="xMidYMid meet">
<metadata>
Created by potrace 1.16, written by Peter Selinger 2001-2019
</metadata>
<g transform="translate(0.000000,917.000000) scale(0.100000,-0.100000)"
fill="#000000" stroke="none">
<path d="M6800 9164 c-53 -11 -127 -38 -179 -67 -67 -38 -158 -126 -194 -188
-46 -78 -77 -182 -77 -254 0 -65 0 -65 -208 -65 -204 0 -209 -1 -260 -26 -70
-35 -123 -100 -130 -159 -5 -45 -5 -45 -322 -45 -290 0 -324 -2 -383 -20 -77
-24 -153 -81 -196 -148 -63 -99 -61 -27 -61 -1667 0 -1324 1 -1490 15 -1489 8
0 62 1 120 2 105 2 105 2 105 1487 0 1484 0 1484 31 1520 58 65 57 65 384 65
295 0 295 0 295 -119 0 -65 5 -133 11 -152 19 -55 55 -96 112 -123 53 -26 53
-26 1032 -24 931 3 982 4 1014 21 19 11 45 31 58 45 50 54 58 80 63 220 5 133
5 133 279 132 297 -1 300 -1 356 -60 30 -31 30 -31 32 -1137 2 -609 5 -1109 8
-1111 3 -3 56 29 118 72 113 77 113 77 111 1114 -1 703 -5 1054 -12 1089 -20
92 -61 154 -142 215 -19 14 -63 36 -97 47 -58 19 -85 21 -357 21 -295 0 -295
0 -302 38 -13 72 -67 136 -144 171 -40 18 -65 21 -246 21 -201 0 -201 0 -207
78 -6 88 -38 183 -87 255 -69 102 -183 190 -290 222 -56 16 -204 28 -250 19z
m197 -275 c76 -29 143 -96 173 -175 20 -54 22 -70 16 -185 -9 -183 -34 -169
313 -169 218 0 281 -3 290 -13 7 -9 11 -82 11 -205 1 -105 -1 -196 -5 -202 -4
-7 -308 -10 -916 -10 -909 0 -909 0 -909 205 0 192 1 205 19 215 12 6 125 10
296 10 276 0 276 0 302 26 28 28 27 19 7 190 -8 65 18 166 52 208 67 80 155
125 246 126 26 0 73 -10 105 -21z"/>
<path d="M3106 8605 c-48 -13 -115 -35 -148 -50 -128 -58 -267 -170 -347 -281
-71 -99 -121 -243 -121 -346 0 -33 10 -90 25 -135 17 -55 40 -99 78 -149 30
-39 57 -79 61 -89 10 -27 -11 -81 -39 -99 -31 -20 -77 -20 -115 -1 -60 31
-162 189 -190 295 -7 24 -17 89 -24 145 -12 100 -12 100 -126 99 -117 -1 -187
-15 -316 -66 -138 -53 -285 -167 -395 -304 -55 -69 -116 -194 -145 -294 -13
-48 -18 -100 -19 -195 0 -118 3 -138 29 -214 36 -106 126 -242 206 -311 56
-48 60 -55 60 -94 0 -33 -6 -48 -27 -68 -27 -25 -50 -32 -100 -29 -34 2 -166
133 -228 226 -56 85 -105 190 -105 225 0 11 -6 20 -14 20 -31 0 -176 -56 -245
-94 -85 -48 -196 -139 -262 -217 -102 -119 -175 -271 -203 -419 -20 -103 -20
-275 -1 -375 8 -42 30 -113 50 -158 19 -46 35 -88 35 -94 0 -6 -20 -23 -45
-38 -58 -34 -165 -133 -221 -206 -57 -74 -117 -187 -153 -286 -16 -43 -36
-120 -45 -172 -44 -256 4 -501 138 -705 58 -89 167 -205 240 -255 35 -25 46
-37 40 -49 -30 -69 -65 -184 -78 -252 -20 -103 -20 -283 -1 -373 17 -81 60
-210 83 -246 117 -191 193 -274 325 -358 101 -64 196 -103 315 -129 83 -18 83
-18 75 -74 -12 -85 -6 -247 11 -330 22 -103 59 -188 128 -296 59 -92 157 -196
238 -251 68 -46 196 -107 285 -136 76 -25 206 -45 324 -50 54 -2 54 -2 66 -42
17 -59 74 -142 138 -203 52 -48 182 -122 216 -122 7 0 92 75 189 168 96 92
230 218 298 280 70 64 124 121 124 131 0 10 -9 26 -20 36 -28 25 -108 151
-168 265 -77 145 -142 320 -191 515 -30 119 -41 195 -51 350 -13 204 3 413 45
579 18 72 31 133 29 135 -3 3 -108 -98 -234 -224 -230 -229 -230 -229 -230
-507 0 -192 3 -278 11 -278 19 0 130 -113 152 -155 18 -33 22 -57 22 -145 0
-90 -3 -112 -23 -152 -31 -63 -91 -121 -160 -155 -50 -24 -69 -28 -147 -28
-76 0 -99 4 -146 26 -68 32 -131 96 -167 169 -21 44 -27 68 -27 130 0 48 7 95
19 129 31 89 126 178 220 205 41 12 41 12 43 316 1 305 1 305 297 598 163 161
296 296 296 301 0 4 -26 33 -57 62 -32 30 -100 98 -151 152 -51 53 -98 97
-104 97 -7 0 -48 -35 -92 -77 -45 -43 -120 -114 -166 -158 -47 -44 -167 -158
-266 -253 -182 -172 -182 -172 -186 -260 -3 -56 -11 -101 -22 -125 -31 -64
-102 -134 -172 -168 -54 -27 -76 -32 -134 -32 -97 0 -175 31 -243 97 -29 28
-64 74 -77 101 -20 41 -24 66 -25 140 0 82 3 96 33 157 19 40 49 81 74 102 22
20 71 47 109 62 58 23 78 26 141 22 75 -5 141 -30 186 -71 22 -21 22 -21 130
84 215 210 424 409 527 502 40 36 40 36 -130 207 -170 170 -170 170 -511 170
-342 0 -342 0 -368 -44 -34 -59 -110 -120 -182 -148 -42 -16 -79 -22 -129 -22
-56 0 -83 7 -135 31 -70 32 -135 94 -168 160 -31 61 -43 135 -32 195 14 71 27
105 67 160 40 56 108 101 187 123 76 22 155 16 227 -17 79 -36 134 -89 170
-164 30 -64 30 -64 410 -64 380 0 380 0 582 -207 483 -496 692 -708 703 -711
6 -2 19 18 29 44 25 66 112 218 181 316 32 46 88 116 123 157 59 68 63 76 47
85 -114 67 -174 137 -196 232 -15 63 -9 160 14 205 16 32 16 32 -37 90 -52 58
-52 58 -522 58 -471 1 -471 1 -748 279 -152 152 -282 285 -290 296 -12 17 -20
18 -81 9 -77 -11 -160 -1 -221 26 -59 27 -124 96 -157 168 -28 60 -30 70 -26
156 3 70 10 102 27 135 34 66 97 128 160 159 50 25 67 28 156 28 92 0 104 -2
153 -30 71 -39 136 -112 162 -183 18 -47 21 -72 18 -142 -3 -60 -11 -98 -26
-129 -12 -25 -21 -50 -20 -55 0 -6 114 -122 252 -258 251 -247 251 -247 574
-250 177 -2 322 0 322 3 0 3 -73 80 -162 170 -90 91 -243 246 -340 345 -178
180 -178 180 -178 557 0 377 0 377 -51 402 -60 31 -130 98 -158 152 -26 52
-44 156 -35 207 20 121 85 211 190 262 52 25 70 29 149 29 78 0 97 -4 146 -28
66 -32 126 -94 166 -169 24 -47 27 -64 27 -143 0 -70 -5 -101 -22 -138 -27
-62 -127 -162 -170 -172 -32 -7 -32 -7 -32 -350 0 -344 0 -344 68 -412 37 -37
202 -207 367 -378 553 -573 486 -512 545 -491 39 14 70 17 133 14 62 -3 94
-11 132 -30 28 -14 67 -43 89 -65 44 -43 86 -124 86 -165 0 -16 5 -28 10 -28
6 0 28 11 49 24 22 14 80 46 130 72 91 46 91 46 91 373 0 326 0 326 -152 481
-84 85 -278 282 -430 437 -278 281 -278 281 -278 722 0 441 0 441 -27 451 -16
6 -39 16 -53 23 -42 20 -114 99 -138 150 -41 88 -39 224 5 311 28 55 102 123
166 152 52 24 74 29 142 29 66 -1 91 -6 143 -30 119 -54 193 -171 194 -306 1
-38 -7 -91 -18 -124 -14 -46 -31 -72 -78 -120 -37 -37 -76 -67 -98 -74 -38
-13 -38 -13 -38 -410 0 -397 0 -397 326 -731 179 -184 328 -336 332 -337 4 -2
7 500 7 1115 -1 1117 -1 1117 -23 1182 -39 116 -98 208 -191 300 -70 70 -104
94 -181 133 -128 64 -226 87 -365 86 -81 -1 -133 -7 -199 -24z"/>
<path d="M5730 7382 c-106 -43 -186 -117 -236 -217 -27 -57 -29 -67 -29 -185
0 -118 2 -128 29 -185 36 -73 115 -154 183 -189 28 -14 80 -30 116 -37 129
-24 264 19 359 114 56 55 86 108 114 195 25 79 16 188 -24 274 -40 89 -112
164 -198 208 -63 32 -76 35 -169 37 -78 2 -110 -1 -145 -15z m350 -247 c18
-19 21 -29 14 -44 -8 -17 -81 -103 -218 -257 -24 -28 -47 -44 -61 -44 -16 0
-46 25 -99 83 -55 60 -76 89 -76 109 0 28 23 48 57 48 10 0 41 -22 68 -50 47
-48 50 -49 68 -32 11 9 54 58 95 107 42 50 81 93 87 97 19 14 41 8 65 -17z"/>
<path d="M6530 7151 c-11 -21 -14 -100 -4 -125 6 -14 91 -16 859 -16 853 0
853 0 857 58 2 31 1 67 -4 80 -8 22 -8 22 -852 22 -825 0 -846 0 -856 -19z"/>
<path d="M6535 6839 c-4 -6 -9 -36 -12 -67 -4 -44 -2 -61 9 -70 12 -9 172 -12
709 -10 694 3 694 3 697 81 3 77 3 77 -697 77 -485 0 -702 -3 -706 -11z"/>
<path d="M5759 6350 c-55 -14 -151 -74 -194 -121 -20 -23 -51 -71 -69 -108
-29 -62 -31 -73 -31 -181 0 -113 1 -118 35 -185 65 -127 168 -204 305 -225 53
-9 86 -8 135 1 132 25 232 99 289 216 40 80 55 151 49 234 -10 137 -106 276
-236 340 -59 29 -78 33 -157 36 -49 1 -106 -2 -126 -7z m321 -250 c11 -11 20
-23 20 -27 -1 -19 -33 -60 -143 -187 -68 -78 -125 -136 -135 -136 -10 0 -55
37 -100 82 -60 61 -82 89 -82 108 0 33 17 50 49 50 18 0 40 -16 76 -56 51 -56
51 -56 80 -17 70 91 178 203 196 203 10 0 28 -9 39 -20z"/>
<path d="M6530 6111 c-12 -23 -13 -110 -2 -128 6 -10 190 -13 843 -13 458 0
842 0 852 0 16 0 18 9 15 78 -3 77 -3 77 -850 80 -830 2 -847 2 -858 -17z"/>
<path d="M9000 5782 c-263 -186 -469 -295 -700 -368 -136 -43 -323 -83 -460
-99 -179 -20 -225 -32 -244 -59 -8 -12 -17 -56 -19 -97 -14 -194 -28 -762 -23
-914 7 -247 55 -498 136 -726 34 -93 30 -85 94 -221 24 -54 48 -98 53 -98 4 0
28 5 53 11 25 6 75 14 113 17 67 7 67 7 30 62 -65 96 -160 334 -203 510 -5 19
-18 94 -30 165 -19 120 -20 166 -18 620 3 490 3 490 123 508 245 36 484 96
660 164 100 39 280 125 365 174 30 18 86 51 123 75 37 24 72 44 77 44 11 0 46
-18 70 -36 8 -6 76 -45 151 -87 300 -167 635 -279 969 -323 69 -9 132 -20 140
-24 13 -6 15 -71 15 -491 -1 -482 -1 -485 -28 -632 -28 -153 -68 -303 -114
-422 -15 -38 -54 -122 -86 -185 -109 -212 -230 -381 -394 -551 -112 -116 -249
-228 -413 -336 -116 -78 -289 -173 -312 -173 -8 0 -60 25 -115 55 -56 30 -105
55 -110 55 -5 0 -10 -43 -11 -97 -1 -53 -7 -102 -12 -108 -6 -7 -8 -19 -5 -26
8 -22 215 -119 252 -119 55 0 290 123 467 244 231 158 458 371 614 576 95 124
153 217 233 377 110 215 168 383 225 648 28 130 28 130 32 751 3 588 2 621
-15 636 -13 12 -53 20 -143 28 -157 13 -225 24 -370 56 -216 49 -376 106 -575
203 -139 69 -278 154 -387 237 -36 29 -66 44 -85 44 -18 0 -61 -24 -123 -68z"/>
<path d="M6537 5803 c-10 -17 -19 -104 -13 -128 6 -25 6 -25 709 -23 702 3
702 3 702 78 0 75 0 75 -697 78 -383 1 -699 -1 -701 -5z"/>
<path d="M9116 5351 c-10 -15 -278 -159 -393 -210 -59 -27 -162 -67 -228 -90
-142 -48 -352 -98 -453 -107 -41 -4 -77 -13 -83 -20 -8 -10 -10 -129 -6 -421
6 -456 11 -517 72 -738 24 -88 82 -240 121 -318 19 -38 59 -110 89 -161 41
-71 61 -95 81 -100 52 -14 188 -87 250 -136 34 -28 84 -74 110 -103 63 -69
136 -182 157 -243 10 -27 22 -56 26 -64 5 -8 28 -27 52 -42 89 -55 207 -118
220 -118 21 0 221 124 309 192 168 129 235 188 344 308 74 81 167 202 223 291
56 89 128 235 168 339 52 136 85 270 106 433 17 131 19 202 17 522 -3 369 -3
369 -88 381 -122 16 -292 58 -465 116 -156 52 -389 160 -534 247 -46 28 -85
51 -87 51 -2 0 -5 -4 -8 -9z m664 -810 c41 -29 70 -80 70 -123 0 -22 -5 -49
-12 -61 -10 -20 -249 -290 -408 -462 -112 -121 -296 -328 -344 -387 -26 -31
-62 -63 -80 -72 -42 -20 -98 -20 -135 -1 -16 8 -116 116 -222 241 -107 124
-199 236 -206 248 -17 29 -16 91 1 124 8 15 26 38 41 52 23 22 36 25 97 25 71
0 71 0 149 -85 44 -47 105 -117 137 -157 36 -46 64 -72 77 -72 13 -1 34 16 57
47 40 53 171 203 322 367 56 61 133 146 171 189 109 125 112 127 152 142 45
16 98 10 133 -15z"/>
<path d="M5765 5307 c-80 -27 -143 -67 -194 -122 -53 -58 -101 -145 -101 -183
0 -17 11 -24 58 -37 31 -8 67 -20 80 -25 13 -6 41 -7 63 -4 35 6 44 3 72 -23
32 -31 68 -53 85 -53 5 0 28 24 50 53 22 28 65 78 95 110 47 50 59 58 78 52
26 -8 48 -33 49 -52 0 -13 -74 -104 -134 -166 -20 -20 -34 -42 -31 -47 4 -6
25 -20 48 -32 23 -11 74 -42 113 -69 39 -26 79 -49 89 -51 38 -6 95 142 95
248 0 111 -65 245 -152 317 -24 19 -70 47 -103 62 -44 21 -79 28 -140 31 -50
3 -95 -1 -120 -9z"/>
<path d="M6532 5078 c-16 -16 -15 -109 1 -131 11 -16 45 -17 407 -15 395 3
395 3 395 78 0 75 0 75 -395 78 -300 2 -399 -1 -408 -10z"/>
<path d="M4704 4846 c-175 -22 -238 -36 -419 -99 -213 -73 -438 -193 -590
-315 -232 -187 -435 -434 -559 -678 -68 -135 -95 -199 -132 -313 -81 -248
-110 -533 -83 -807 24 -246 105 -515 219 -731 72 -135 188 -309 253 -379 32
-34 57 -65 57 -68 0 -4 -59 -67 -132 -141 -123 -125 -135 -135 -178 -141 -97
-14 -83 -3 -515 -398 -137 -126 -276 -253 -308 -282 -76 -69 -107 -135 -107
-227 0 -48 6 -79 20 -107 31 -62 80 -111 135 -136 38 -18 68 -24 123 -24 59 0
84 5 127 27 33 16 80 52 117 92 157 165 363 385 449 480 52 57 111 122 132
145 21 22 45 54 54 71 9 16 18 60 21 98 4 54 9 71 26 83 11 8 74 67 139 131
86 85 121 115 131 108 54 -41 265 -176 325 -207 82 -44 226 -102 346 -141 44
-15 139 -38 210 -52 99 -20 173 -28 310 -32 191 -6 301 3 472 37 166 33 378
108 546 191 57 29 77 44 77 59 0 28 38 135 71 200 15 30 95 136 179 235 83 99
176 212 208 250 31 39 133 162 227 274 93 112 179 218 191 235 30 46 82 299
96 465 9 108 9 175 0 274 -19 218 -71 430 -155 632 -36 84 -120 236 -185 330
-176 255 -427 483 -698 631 -182 99 -431 185 -634 219 -130 22 -426 27 -566
11z m495 -282 c190 -27 340 -76 537 -172 422 -208 749 -595 892 -1058 111
-359 95 -780 -44 -1137 -80 -205 -174 -365 -308 -525 -81 -97 -234 -231 -346
-303 -93 -60 -309 -162 -420 -199 -170 -55 -319 -81 -495 -87 -142 -4 -179 -2
-325 22 -213 35 -391 93 -568 186 -73 38 -181 105 -240 148 -127 94 -284 252
-369 371 -67 94 -139 220 -183 321 -63 143 -90 234 -132 454 -15 79 -15 424 0
495 7 30 17 78 22 105 20 97 83 281 134 390 91 193 211 361 357 501 102 97
197 171 307 239 92 56 274 145 300 145 7 0 31 9 52 20 47 24 256 76 355 89
117 14 359 12 474 -5z"/>
<path d="M5890 3909 c-33 -13 -68 -47 -87 -84 -9 -17 -16 -58 -17 -96 -1 -67
-1 -67 -155 -234 -142 -153 -156 -166 -180 -159 -14 4 -51 7 -82 8 -43 0 -62
-5 -84 -22 -15 -12 -35 -22 -43 -22 -9 0 -58 17 -109 37 -84 34 -94 40 -102
70 -13 45 -56 98 -96 117 -41 20 -105 21 -148 2 -60 -25 -107 -102 -107 -176
0 -19 -55 -78 -246 -264 -245 -239 -245 -239 -267 -219 -37 34 -63 43 -122 43
-43 0 -65 -6 -88 -22 -18 -13 -40 -32 -49 -43 -25 -30 -41 -98 -34 -142 7 -38
6 -40 -78 -121 -74 -72 -90 -82 -121 -82 -20 0 -50 -6 -68 -14 -100 -41 -92
-196 11 -226 77 -23 162 37 162 115 0 27 13 45 82 113 83 81 83 81 158 75 58
-4 83 -2 105 10 41 21 72 56 87 99 9 25 86 107 270 287 141 138 260 251 265
251 4 0 28 -7 52 -16 60 -20 123 -10 166 27 18 16 39 29 47 29 8 0 52 -15 99
-34 84 -34 84 -34 91 -76 15 -89 105 -157 195 -147 51 5 109 47 133 93 8 16
15 55 15 87 1 58 1 58 87 145 47 48 121 125 165 171 79 84 79 84 150 85 59 1
76 5 110 29 22 15 46 39 54 54 8 15 14 55 14 94 0 53 -5 74 -21 96 -11 15 -36
38 -54 51 -24 16 -47 22 -84 21 -28 0 -62 -5 -76 -10z"/>
<path d="M5775 3158 c-8 -34 -1 -1678 7 -1678 15 0 132 74 206 130 42 32 101
81 130 109 52 51 52 51 50 753 -3 703 -3 703 -195 706 -193 2 -193 2 -198 -20z"/>
<path d="M5186 2751 c-2 -3 -4 -334 -5 -735 -2 -729 -2 -729 41 -722 66 10
174 36 268 65 85 26 85 26 85 709 0 684 0 684 -193 686 -106 2 -194 0 -196 -3z"/>
<path d="M4778 2623 c-178 -3 -178 -3 -180 -646 -2 -353 -2 -647 0 -653 1 -5
35 -15 75 -22 113 -18 286 -34 302 -28 13 5 15 97 15 675 0 601 -2 669 -16
675 -9 3 -16 5 -17 4 -1 -1 -82 -4 -179 -5z"/>
<path d="M4016 2282 c-2 -4 -7 -161 -10 -348 -4 -262 -3 -344 7 -356 36 -44
353 -206 381 -195 8 3 10 144 8 456 -2 451 -2 451 -192 451 -104 0 -191 -4
-194 -8z"/>
<path d="M6530 4744 c-12 -30 -13 -104 -2 -122 7 -9 95 -12 408 -10 399 3 399
3 402 57 2 30 1 65 -3 78 -5 23 -5 23 -400 23 -395 0 -395 0 -405 -26z"/>
<path d="M7945 3049 c-162 -24 -277 -81 -391 -194 -76 -76 -482 -551 -535
-625 -38 -54 -146 -188 -219 -270 -36 -41 -111 -129 -167 -195 -55 -66 -171
-203 -257 -305 -97 -114 -168 -208 -186 -245 -48 -98 -64 -176 -64 -310 0
-105 4 -130 28 -200 86 -248 263 -412 498 -459 97 -20 181 -20 283 -1 132 26
282 107 354 192 76 91 219 259 327 384 60 69 154 179 209 245 55 65 120 141
146 169 25 27 93 106 151 175 58 69 196 228 307 355 202 228 248 294 271 384
5 23 15 60 21 84 7 23 12 87 12 142 0 81 -5 116 -27 184 -38 119 -81 195 -156
275 -108 115 -242 188 -387 212 -97 15 -129 16 -218 3z m250 -175 c87 -21 174
-74 242 -148 106 -112 151 -243 140 -401 -4 -61 -14 -104 -37 -158 -25 -61
-55 -103 -173 -240 -331 -385 -490 -567 -496 -567 -3 0 -71 59 -151 131 -80
73 -188 168 -240 211 -85 72 -267 232 -375 330 -40 37 -40 37 1 80 22 24 60
68 84 98 107 133 380 451 440 510 94 95 202 151 325 169 71 11 157 5 240 -15z
m-1034 -1081 c236 -208 437 -383 525 -458 78 -66 98 -95 74 -110 -6 -4 -143
-161 -305 -350 -162 -189 -309 -355 -327 -369 -18 -13 -69 -42 -113 -63 -75
-36 -87 -38 -191 -41 -84 -3 -126 0 -170 13 -83 24 -158 69 -223 134 -98 98
-151 228 -151 368 0 87 15 162 44 223 12 25 92 128 177 229 84 100 183 217
217 259 35 43 109 130 164 194 80 94 104 116 117 109 9 -5 82 -67 162 -138z"/>
<path d="M9100 1954 c-14 -2 -58 -9 -99 -15 -111 -16 -256 -76 -366 -150 -65
-44 -167 -141 -209 -198 -82 -112 -147 -251 -171 -368 -33 -164 -28 -315 17
-468 22 -77 85 -208 126 -264 64 -87 131 -157 201 -210 145 -111 304 -173 488
-193 80 -8 126 -8 196 2 117 16 226 50 324 102 97 50 129 74 222 162 121 117
192 230 247 396 27 81 28 94 28 275 1 188 1 191 -31 280 -50 143 -127 270
-217 361 -114 113 -252 199 -394 244 -116 38 -274 56 -362 44z m187 -165 c86
-12 226 -62 288 -102 99 -65 137 -95 165 -129 30 -37 30 -37 8 -51 -13 -8
-162 -85 -333 -172 -170 -87 -350 -179 -400 -205 -49 -26 -175 -91 -280 -145
-104 -54 -214 -111 -243 -127 -29 -15 -58 -28 -66 -28 -9 0 -17 28 -26 91 -11
74 -11 112 -1 195 12 104 25 153 61 231 11 24 20 45 20 47 0 11 63 97 105 144
64 71 152 135 250 181 92 44 140 59 229 70 90 12 136 12 223 0z m596 -436 c60
-119 83 -266 67 -415 -19 -178 -95 -334 -225 -463 -89 -89 -181 -145 -310
-190 -62 -21 -105 -28 -197 -32 -237 -11 -423 56 -583 212 -77 74 -165 192
-165 220 0 7 64 45 143 85 257 131 570 292 682 350 61 31 200 103 310 160 110
56 204 106 210 111 22 21 45 8 68 -38z"/>
</g>
</svg>
