<svg xmlns="http://www.w3.org/2000/svg" width="512" height="512" viewBox="0 0 512 512" fill="currentColor">
<path fill-rule="evenodd" clip-rule="evenodd" d="M 309.135554413,88.1798290707 c -1.9418301925,0.403021360708 -4.6530648009,1.39225560972 -6.55825668788,2.45476646977 c -2.45476646977,1.39225560972 -5.78885227198,4.61642649538 -7.10783127066,6.88800143755 c -1.68536205387,2.85778783047 -2.82114952495,6.66817160444 -2.82114952495,9.3061296018 c 0,2.38148985873 0,2.38148985873 -7.62076754793,2.38148985873 c -7.47421432585,0 -7.65740585345,0.0366383055188 -9.52595943491,0.952595943491 c -2.56468138632,1.28234069316 -4.50651157882,3.66383055189 -4.76297971745,5.8254905775 c -0.183191527594,1.64872374835 -0.183191527594,1.64872374835 -11.7975343771,1.64872374835 c -10.6251086005,0 -11.8708109881,0.0732766110378 -14.0324710137,0.732766110378 c -2.82114952495,0.879319332453 -5.60566074439,2.96770274703 -7.1811078817,5.42246921679 c -2.30821324769,3.62719224637 -2.23493663665,0.98923424901 -2.23493663665,61.0760553 c 0,48.509116507 0.0366383055189,54.5910752231 0.549574582783,54.5544369176 c 0.293106444151,0 2.27157494217,-0.0366383055189 4.39659666227,-0.0732766110378 c 3.84702207948,-0.0732766110378 3.84702207948,-0.0732766110378 3.84702207948,-54.4811603066 c 0,-54.37124539 0,-54.37124539 1.13578747109,-55.6902243887 c 2.1250217201,-2.38148985873 2.08838341458,-2.38148985873 14.0691093193,-2.38148985873 c 10.8083001281,0 10.8083001281,0 10.8083001281,4.35995835675 c 0,2.38148985873 0.183191527594,4.87289463401 0.403021360708,5.56902243887 c 0.696127804859,2.01510680354 2.01510680354,3.51727732981 4.10349021811,4.50651157882 c 1.9418301925,0.952595943491 1.9418301925,0.952595943491 37.8107312955,0.879319332453 c 34.1102624381,-0.109914916557 35.9788160195,-0.146553222076 37.1512417961,-0.769404415897 c 0.696127804859,-0.403021360708 1.64872374835,-1.13578747109 2.1250217201,-1.64872374835 c 1.83191527594,-1.97846849802 2.1250217201,-2.93106444151 2.30821324769,-8.06042721415 c 0.183191527594,-4.87289463401 0.183191527594,-4.87289463401 10.2220872398,-4.83625632849 c 10.8815767391,0.0366383055188 10.9914916557,0.0366383055188 13.0432367647,2.19829833113 c 1.09914916557,1.13578747109 1.09914916557,1.13578747109 1.1724257766,41.657753375 c 0.0732766110378,22.312728061 0.183191527594,40.6318808204 0.293106444151,40.7051574315 c 0.109914916557,0.109914916557 2.05174510906,-1.06251086005 4.32332005123,-2.63795799736 c 4.14012852363,-2.82114952495 4.14012852363,-2.82114952495 4.0668519126,-40.815072348 c -0.0366383055189,-25.7567287798 -0.183191527594,-38.6167740169 -0.439659666227,-39.8991147101 c -0.732766110378,-3.37072410774 -2.23493663665,-5.64229904991 -5.20263938368,-7.87723568656 c -0.696127804859,-0.512936277264 -2.30821324769,-1.31897899868 -3.55391563533,-1.72200035939 c -2.1250217201,-0.696127804859 -3.1142559691,-0.769404415897 -13.0798750702,-0.769404415897 c -10.8083001281,0 -10.8083001281,0 -11.0647682667,-1.39225560972 c -0.476297971745,-2.63795799736 -2.45476646977,-4.98280955057 -5.27591599472,-6.26515024373 c -1.46553222076,-0.65948949934 -2.38148985873,-0.769404415896 -9.01302315764,-0.769404415896 c -7.3642994093,0 -7.3642994093,0 -7.58412924241,-2.85778783047 c -0.219829833113,-3.22417088566 -1.39225560972,-6.70480990996 -3.18753258014,-9.34276790731 c -2.5280430808,-3.73710716293 -6.70480990996,-6.96127804859 -10.6251086005,-8.13370382519 c -2.05174510906,-0.586212888302 -7.47421432585,-1.02587255453 -9.15957637972,-0.696127804859 z m 7.21774618722,10.0755340177 c 2.78451121943,1.06251086005 5.2392776892,3.51727732981 6.33842685477,6.4117034658 c 0.732766110378,1.97846849802 0.806042721415,2.56468138632 0.586212888302,6.77808652099 c -0.32974474967,6.70480990996 -1.24570238764,6.19187363269 11.4677896274,6.19187363269 c 7.98715060312,0 10.2953638508,0.109914916557 10.6251086005,0.476297971745 c 0.256468138632,0.32974474967 0.403021360708,3.00434105255 0.403021360708,7.51085263137 c 0.0366383055189,3.84702207948 -0.0366383055189,7.1811078817 -0.183191527594,7.40093771481 c -0.146553222076,0.256468138632 -11.2845980998,0.366383055189 -33.5606878553,0.366383055189 c -33.3042197167,0 -33.3042197167,0 -33.3042197167,-7.51085263137 c 0,-7.03455465963 0.0366383055189,-7.51085263137 0.696127804859,-7.87723568656 c 0.439659666227,-0.219829833113 4.57978818986,-0.366383055189 10.8449384336,-0.366383055189 c 10.1121723232,0 10.1121723232,0 11.0647682667,-0.952595943491 c 1.02587255453,-1.02587255453 0.98923424901,-0.696127804859 0.256468138632,-6.96127804859 c -0.293106444151,-2.38148985873 0.65948949934,-6.08195871613 1.90519188698,-7.62076754793 c 2.45476646976,-2.93106444151 5.67893735543,-4.57978818986 9.01302315764,-4.61642649538 c 0.952595943491,0 2.67459630288,0.366383055189 3.84702207948,0.769404415896 z M 173.793653827,108.660641856 c -1.75863866491,0.476297971745 -4.21340513467,1.28234069316 -5.42246921679,1.83191527594 c -4.68970310642,2.1250217201 -9.78242757354,6.22851193821 -12.7134920151,10.2953638508 c -2.60131969184,3.62719224637 -4.43323496778,8.90310824109 -4.43323496778,12.6768537095 c 0,1.20906408212 0.366383055189,3.2974474967 0.915957637972,4.94617124505 c 0.622851193821,2.01510680354 1.46553222076,3.62719224637 2.85778783047,5.45910752231 c 1.09914916557,1.42889391524 2.08838341458,2.89442613599 2.23493663665,3.26080919118 c 0.366383055189,0.98923424901 -0.403021360708,2.96770274703 -1.42889391524,3.62719224637 c -1.13578747109,0.732766110378 -2.82114952495,0.732766110378 -4.21340513467,0.0366383055189 c -2.19829833113,-1.13578747109 -5.93540549406,-6.92463974307 -6.96127804859,-10.8083001281 c -0.256468138632,-0.879319332453 -0.622851193821,-3.26080919118 -0.879319332453,-5.31255430024 c -0.439659666227,-3.66383055189 -0.439659666227,-3.66383055189 -4.61642649538,-3.62719224637 c -4.28668174571,0.0366383055189 -6.85136313203,0.549574582783 -11.577704544,2.41812816425 c -5.05608616161,1.9418301925 -10.4419170729,6.11859702165 -14.47213068,11.1380448777 c -2.01510680354,2.5280430808 -4.25004344019,7.10783127066 -5.31255430024,10.7716618226 c -0.476297971745,1.75863866491 -0.65948949934,3.66383055189 -0.696127804859,7.14446957618 c 0,4.32332005123 0.109914916557,5.05608616161 1.06251086005,7.84059738104 c 1.31897899868,3.883660385 4.61642649538,8.86646993557 7.54749093689,11.3945130164 c 2.05174510906,1.75863866491 2.19829833113,2.01510680354 2.19829833113,3.44400071877 c 0,1.20906408212 -0.219829833113,1.75863866491 -0.98923424901,2.49140477528 c -0.98923424901,0.915957637972 -1.83191527594,1.1724257766 -3.66383055189,1.06251086005 c -1.24570238764,-0.0732766110378 -6.08195871613,-4.87289463401 -8.3535336583,-8.28025704727 c -2.05174510906,-3.1142559691 -3.84702207948,-6.96127804859 -3.84702207948,-8.24361874175 c 0,-0.403021360708 -0.219829833113,-0.732766110378 -0.512936277264,-0.732766110378 c -1.13578747109,0 -6.44834177132,2.05174510906 -8.97638485213,3.44400071877 c -3.1142559691,1.75863866491 -7.1811078817,5.09272446712 -9.59923604595,7.9505122976 c -3.73710716293,4.35995835675 -6.4117034658,9.92898079562 -7.43757602033,15.3514500124 c -0.732766110378,3.77374546844 -0.732766110378,10.0755340177 -0.0366383055189,13.7393645696 c 0.293106444151,1.53880883179 1.09914916557,4.14012852363 1.83191527594,5.78885227198 c 0.696127804859,1.68536205387 1.28234069316,3.22417088566 1.28234069316,3.44400071877 c 0,0.219829833113 -0.732766110378,0.842681026934 -1.64872374835,1.39225560972 c -2.1250217201,1.24570238764 -6.04532041062,4.87289463401 -8.09706551967,7.54749093689 c -2.08838341458,2.7112346084 -4.28668174571,6.85136313203 -5.60566074439,10.4785553784 c -0.586212888302,1.57544713731 -1.31897899868,4.39659666227 -1.64872374835,6.30178854925 c -1.61208544283,9.37940621283 0.146553222076,18.355791065 5.05608616161,25.8300053908 c 2.1250217201,3.26080919118 6.11859702165,7.51085263137 8.79319332453,9.34276790731 c 1.28234069316,0.915957637972 1.68536205387,1.3556173042 1.46553222076,1.79527697043 c -1.09914916557,2.5280430808 -2.38148985873,6.74144821547 -2.85778783047,9.23285299076 c -0.732766110378,3.77374546844 -0.732766110378,10.3686404618 -0.0366383055189,13.6660879585 c 0.622851193821,2.96770274703 2.19829833113,7.69404415896 3.04097935807,9.01302315764 c 4.28668174571,6.99791635411 7.07119296514,10.0388957122 11.9074492936,13.1165133758 c 3.70046885741,2.34485155321 7.1811078817,3.77374546844 11.5410662384,4.72634141194 c 3.04097935807,0.65948949934 3.04097935807,0.65948949934 2.74787291392,2.7112346084 c -0.439659666227,3.1142559691 -0.219829833113,9.04966146316 0.403021360708,12.0906408212 c 0.806042721415,3.77374546844 2.16166002561,6.88800143755 4.68970310642,10.8449384336 c 2.16166002561,3.37072410774 5.75221396646,7.1811078817 8.71991671349,9.19621468524 c 2.49140477528,1.68536205387 7.1811078817,3.92029869052 10.4419170729,4.98280955057 c 2.78451121943,0.915957637972 7.54749093689,1.64872374835 11.8708109881,1.83191527594 c 1.97846849802,0.0732766110378 1.97846849802,0.0732766110378 2.41812816425,1.53880883179 c 0.622851193821,2.16166002561 2.7112346084,5.20263938368 5.05608616161,7.43757602033 c 1.90519188698,1.75863866491 6.66817160444,4.4698732733 7.91387399208,4.4698732733 c 0.256468138632,0 3.37072410774,-2.74787291392 6.92463974307,-6.15523532717 c 3.51727732981,-3.37072410774 8.42681026934,-7.98715060312 10.9182150446,-10.2587255453 c 2.56468138632,-2.34485155321 4.54314988434,-4.43323496778 4.54314988434,-4.79961802297 c 0,-0.366383055189 -0.32974474967,-0.952595943491 -0.732766110378,-1.31897899868 c -1.02587255453,-0.915957637972 -3.95693699604,-5.53238413335 -6.15523532717,-9.7091509625 c -2.82114952495,-5.31255430024 -5.20263938368,-11.724257766 -6.99791635411,-18.8687273422 c -1.09914916557,-4.35995835675 -1.50217052627,-7.14446957618 -1.86855358146,-12.8234069316 c -0.476297971745,-7.47421432585 0.109914916557,-15.1316201793 1.64872374835,-21.2135788954 c 0.65948949934,-2.63795799736 1.13578747109,-4.87289463401 1.06251086005,-4.94617124505 c -0.109914916557,-0.109914916557 -3.95693699604,3.59055394085 -8.57336349142,8.20698043623 c -8.42681026934,8.39017196382 -8.42681026934,8.39017196382 -8.42681026934,18.5756208981 c 0,7.03455465963 0.109914916557,10.1854489342 0.403021360708,10.1854489342 c 0.696127804859,0 4.76297971745,4.14012852363 5.56902243887,5.67893735543 c 0.65948949934,1.20906408212 0.806042721415,2.08838341458 0.806042721415,5.31255430024 c 0,3.2974474967 -0.109914916557,4.10349021811 -0.842681026934,5.56902243887 c -1.13578747109,2.30821324769 -3.33408580222,4.43323496778 -5.86212888302,5.67893735543 c -1.83191527594,0.879319332453 -2.5280430808,1.02587255453 -5.38583091128,1.02587255453 c -2.78451121943,0 -3.62719224637,-0.146553222075 -5.34919260576,-0.952595943491 c -2.49140477528,-1.1724257766 -4.79961802297,-3.51727732981 -6.11859702165,-6.19187363269 c -0.769404415896,-1.61208544283 -0.98923424901,-2.49140477528 -0.98923424901,-4.76297971745 c 0,-1.75863866491 0.256468138632,-3.48063902429 0.696127804859,-4.72634141194 c 1.13578747109,-3.26080919118 4.61642649538,-6.52161838236 8.06042721415,-7.51085263137 c 1.50217052627,-0.439659666227 1.50217052627,-0.439659666227 1.57544713731,-11.577704544 c 0.0366383055189,-11.1746831833 0.0366383055189,-11.1746831833 10.8815767391,-21.9097067003 c 5.97204379958,-5.89876718854 10.8449384336,-10.8449384336 10.8449384336,-11.0281299612 c 0,-0.146553222076 -0.952595943491,-1.20906408212 -2.08838341458,-2.27157494217 c -1.1724257766,-1.09914916557 -3.66383055189,-3.59055394085 -5.53238413335,-5.56902243887 c -1.86855358146,-1.9418301925 -3.59055394085,-3.55391563533 -3.81038377396,-3.55391563533 c -0.256468138632,0 -1.75863866491,1.28234069316 -3.37072410774,2.82114952495 c -1.64872374835,1.57544713731 -4.39659666227,4.17676682915 -6.08195871613,5.78885227198 c -1.72200035939,1.61208544283 -6.11859702165,5.78885227198 -9.74578926802,9.26949129628 c -6.66817160444,6.30178854925 -6.66817160444,6.30178854925 -6.81472482651,9.52595943491 c -0.109914916557,2.05174510906 -0.403021360708,3.70046885741 -0.806042721415,4.57978818986 c -1.13578747109,2.34485155321 -3.73710716293,4.90953293953 -6.30178854925,6.15523532717 c -1.97846849802,0.98923424901 -2.78451121943,1.1724257766 -4.90953293953,1.1724257766 c -3.55391563533,0 -6.4117034658,-1.13578747109 -8.90310824109,-3.55391563533 c -1.06251086005,-1.02587255453 -2.34485155321,-2.7112346084 -2.82114952495,-3.70046885741 c -0.732766110378,-1.50217052627 -0.879319332453,-2.41812816425 -0.915957637972,-5.12936277264 c 0,-3.00434105255 0.109914916557,-3.51727732981 1.20906408212,-5.75221396646 c 0.696127804859,-1.46553222076 1.79527697043,-2.96770274703 2.7112346084,-3.73710716293 c 0.806042721415,-0.732766110378 2.60131969184,-1.72200035939 3.99357530156,-2.27157494217 c 2.1250217201,-0.842681026934 2.85778783047,-0.952595943491 5.16600107816,-0.806042721415 c 2.74787291392,0.183191527594 5.16600107816,1.09914916557 6.81472482651,2.60131969184 c 0.806042721415,0.769404415896 0.806042721415,0.769404415896 4.76297971745,-3.07761766359 c 7.87723568656,-7.69404415896 15.53464154,-14.9850669572 19.3083870085,-18.3924293705 c 1.46553222076,-1.31897899868 1.46553222076,-1.31897899868 -4.76297971745,-7.58412924241 c -6.22851193821,-6.22851193821 -6.22851193821,-6.22851193821 -18.7221741201,-6.22851193821 c -12.5303004875,0 -12.5303004875,0 -13.4828964309,1.61208544283 c -1.24570238764,2.16166002561 -4.03021360708,4.39659666227 -6.66817160444,5.42246921679 c -1.53880883179,0.586212888302 -2.89442613599,0.806042721415 -4.72634141194,0.806042721415 c -2.05174510906,0 -3.04097935807,-0.256468138632 -4.94617124505,-1.13578747109 c -2.56468138632,-1.1724257766 -4.94617124505,-3.44400071877 -6.15523532717,-5.86212888302 c -1.13578747109,-2.23493663665 -1.57544713731,-4.94617124505 -1.1724257766,-7.14446957618 c 0.512936277264,-2.60131969184 0.98923424901,-3.84702207948 2.45476646977,-5.86212888302 c 1.46553222076,-2.05174510906 3.95693699604,-3.70046885741 6.85136313203,-4.50651157882 c 2.78451121943,-0.806042721415 5.67893735543,-0.586212888302 8.31689535279,0.622851193821 c 2.89442613599,1.31897899868 4.90953293953,3.26080919118 6.22851193821,6.0086821051 c 1.09914916557,2.34485155321 1.09914916557,2.34485155321 15.0217052627,2.34485155321 c 13.9225560972,0 13.9225560972,0 21.323493812,7.58412924241 c 17.6963015656,18.1725995374 25.3537074191,25.9399203074 25.7567287798,26.0498352239 c 0.219829833113,0.0732766110378 0.696127804859,-0.65948949934 1.06251086005,-1.61208544283 c 0.915957637972,-2.41812816425 4.10349021811,-7.98715060312 6.63153329892,-11.577704544 c 1.1724257766,-1.68536205387 3.22417088566,-4.25004344019 4.50651157882,-5.75221396646 c 2.16166002561,-2.49140477528 2.30821324769,-2.78451121943 1.72200035939,-3.1142559691 c -4.17676682915,-2.45476646976 -6.37506516029,-5.01944785609 -7.1811078817,-8.50008688038 c -0.549574582783,-2.30821324769 -0.32974474967,-5.86212888302 0.512936277264,-7.51085263137 c 0.586212888302,-1.1724257766 0.586212888302,-1.1724257766 -1.3556173042,-3.2974474967 c -1.90519188698,-2.1250217201 -1.90519188698,-2.1250217201 -19.1251954809,-2.1250217201 c -17.2566418994,-0.0366383055189 -17.2566418994,-0.0366383055189 -27.4054525281,-10.2220872398 c -5.56902243887,-5.56902243887 -10.3320021563,-10.4419170729 -10.6251086005,-10.8449384336 c -0.439659666227,-0.622851193821 -0.732766110378,-0.65948949934 -2.96770274703,-0.32974474967 c -2.82114952495,0.403021360708 -5.86212888302,0.0366383055189 -8.09706551967,-0.952595943491 c -2.16166002561,-0.98923424901 -4.54314988434,-3.51727732981 -5.75221396646,-6.15523532717 c -1.02587255453,-2.19829833113 -1.09914916557,-2.56468138632 -0.952595943491,-5.71557566095 c 0.109914916557,-2.56468138632 0.366383055189,-3.73710716293 0.98923424901,-4.94617124505 c 1.24570238764,-2.41812816425 3.55391563533,-4.68970310642 5.86212888302,-5.8254905775 c 1.83191527594,-0.915957637972 2.45476646977,-1.02587255453 5.71557566095,-1.02587255453 c 3.37072410774,0 3.81038377396,0.0732766110377 5.60566074439,1.09914916557 c 2.60131969184,1.42889391524 4.98280955057,4.10349021811 5.93540549406,6.70480990996 c 0.65948949934,1.72200035939 0.769404415897,2.63795799736 0.65948949934,5.20263938368 c -0.109914916557,2.19829833113 -0.403021360708,3.59055394085 -0.952595943491,4.72634141194 c -0.439659666227,0.915957637972 -0.769404415896,1.83191527594 -0.732766110378,2.01510680354 c 0,0.219829833113 4.17676682915,4.4698732733 9.23285299076,9.45268282387 c 9.19621468524,9.04966146316 9.19621468524,9.04966146316 21.0303873678,9.15957637972 c 6.48498007684,0.0732766110378 11.7975343771,0 11.7975343771,-0.109914916557 c 0,-0.109914916557 -2.67459630288,-2.93106444151 -5.93540549406,-6.22851193821 c -3.2974474967,-3.33408580222 -8.90310824109,-9.01302315764 -12.4570238764,-12.640215404 c -6.52161838236,-6.5948949934 -6.52161838236,-6.5948949934 -6.52161838236,-20.407536174 c 0,-13.8126411806 0,-13.8126411806 -1.86855358146,-14.7285988186 c -2.19829833113,-1.13578747109 -4.76297971745,-3.59055394085 -5.78885227198,-5.56902243887 c -0.952595943491,-1.90519188698 -1.61208544283,-5.71557566095 -1.28234069316,-7.58412924241 c 0.732766110378,-4.43323496778 3.1142559691,-7.73068246448 6.96127804859,-9.59923604595 c 1.90519188698,-0.915957637972 2.56468138632,-1.06251086005 5.45910752231,-1.06251086005 c 2.85778783047,0 3.55391563533,0.146553222076 5.34919260576,1.02587255453 c 2.41812816425,1.1724257766 4.61642649538,3.44400071877 6.08195871613,6.19187363269 c 0.879319332453,1.72200035939 0.98923424901,2.34485155321 0.98923424901,5.2392776892 c 0,2.56468138632 -0.183191527594,3.70046885741 -0.806042721415,5.05608616161 c -0.98923424901,2.27157494217 -4.6530648009,5.93540549406 -6.22851193821,6.30178854925 c -1.1724257766,0.256468138632 -1.1724257766,0.256468138632 -1.1724257766,12.8234069316 c 0,12.6035770985 0,12.6035770985 2.49140477528,15.0949818738 c 1.3556173042,1.3556173042 7.40093771481,7.58412924241 13.4462581254,13.8492794861 c 20.2609829519,20.9937490623 17.8062164822,18.7588124257 19.9678765078,17.9894080098 c 1.42889391524,-0.512936277264 2.56468138632,-0.622851193821 4.87289463401,-0.512936277264 c 2.27157494217,0.109914916557 3.44400071877,0.403021360708 4.83625632849,1.09914916557 c 1.02587255453,0.512936277264 2.45476646976,1.57544713731 3.26080919118,2.38148985873 c 1.61208544283,1.57544713731 3.15089427462,4.54314988434 3.15089427462,6.04532041062 c 0,0.586212888302 0.183191527594,1.02587255453 0.366383055189,1.02587255453 c 0.219829833113,0 1.02587255453,-0.403021360708 1.79527697043,-0.879319332453 c 0.806042721415,-0.512936277264 2.93106444151,-1.68536205387 4.76297971745,-2.63795799736 c 3.33408580222,-1.68536205387 3.33408580222,-1.68536205387 3.33408580222,-13.6660879585 c 0,-11.9440875992 0,-11.9440875992 -5.56902243887,-17.6230249546 c -3.07761766359,-3.1142559691 -10.1854489342,-10.3320021563 -15.7544713731,-16.0109395118 c -10.1854489342,-10.2953638508 -10.1854489342,-10.2953638508 -10.1854489342,-26.4528565846 c 0,-16.1574927338 0,-16.1574927338 -0.98923424901,-16.523875789 c -0.586212888302,-0.219829833113 -1.42889391524,-0.586212888302 -1.9418301925,-0.842681026934 c -1.53880883179,-0.732766110378 -4.17676682915,-3.62719224637 -5.05608616161,-5.49574582783 c -1.50217052627,-3.22417088566 -1.42889391524,-8.20698043623 0.183191527594,-11.3945130164 c 1.02587255453,-2.01510680354 3.73710716293,-4.50651157882 6.08195871613,-5.56902243887 c 1.90519188698,-0.879319332453 2.7112346084,-1.06251086005 5.20263938368,-1.06251086005 c 2.41812816425,0.0366383055189 3.33408580222,0.219829833113 5.2392776892,1.09914916557 c 4.35995835675,1.97846849802 7.07119296514,6.26515024373 7.10783127066,11.2113214888 c 0.0366383055189,1.39225560972 -0.256468138632,3.33408580222 -0.65948949934,4.54314988434 c -0.512936277264,1.68536205387 -1.13578747109,2.63795799736 -2.85778783047,4.39659666227 c -1.3556173042,1.3556173042 -2.78451121943,2.45476646977 -3.59055394085,2.7112346084 c -1.39225560972,0.476297971745 -1.39225560972,0.476297971745 -1.39225560972,15.0217052627 c 0,14.545407291 0,14.545407291 11.9440875992,26.7826013343 c 6.55825668788,6.74144821547 12.0173642102,12.3104706543 12.1639174323,12.3471089599 c 0.146553222076,0.0732766110378 0.256468138632,-18.3191527594 0.256468138632,-40.8517106536 c -0.0366383055189,-40.9249872646 -0.0366383055189,-40.9249872646 -0.842681026934,-43.3064771233 c -1.42889391524,-4.25004344019 -3.59055394085,-7.62076754793 -6.99791635411,-10.9914916557 c -2.56468138632,-2.56468138632 -3.81038377396,-3.44400071877 -6.63153329892,-4.87289463401 c -4.68970310642,-2.34485155321 -8.28025704727,-3.18753258014 -13.3729815144,-3.15089427462 c -2.96770274703,0.0366383055189 -4.87289463401,0.256468138632 -7.29102279826,0.879319332453 z M 269.932567508,153.469289505 c -3.883660385,1.57544713731 -6.81472482651,4.28668174571 -8.64664010246,7.9505122976 c -0.98923424901,2.08838341458 -1.06251086005,2.45476646977 -1.06251086005,6.77808652099 c 0,4.32332005123 0.0732766110378,4.68970310642 1.06251086005,6.77808652099 c 1.31897899868,2.67459630288 4.21340513467,5.64229904991 6.70480990996,6.92463974307 c 1.02587255453,0.512936277264 2.93106444151,1.09914916557 4.25004344019,1.3556173042 c 4.72634141194,0.879319332453 9.67251265698,-0.696127804859 13.1531516813,-4.17676682915 c 2.05174510906,-2.01510680354 3.15089427462,-3.95693699604 4.17676682915,-7.14446957618 c 0.915957637972,-2.89442613599 0.586212888302,-6.88800143755 -0.879319332453,-10.0388957122 c -1.46553222076,-3.26080919118 -4.10349021811,-6.0086821051 -7.25438449274,-7.62076754793 c -2.30821324769,-1.1724257766 -2.78451121943,-1.28234069316 -6.19187363269,-1.3556173042 c -2.85778783047,-0.0732766110378 -4.03021360708,0.0366383055189 -5.31255430024,0.549574582783 z m 12.8234069316,9.04966146316 c 0.65948949934,0.696127804859 0.769404415896,1.06251086005 0.512936277264,1.61208544283 c -0.293106444151,0.622851193821 -2.96770274703,3.77374546844 -7.98715060312,9.41604451835 c -0.879319332453,1.02587255453 -1.72200035939,1.61208544283 -2.23493663665,1.61208544283 c -0.586212888302,0 -1.68536205387,-0.915957637972 -3.62719224637,-3.04097935807 c -2.01510680354,-2.19829833113 -2.78451121943,-3.26080919118 -2.78451121943,-3.99357530156 c 0,-1.02587255453 0.842681026934,-1.75863866491 2.08838341458,-1.75863866491 c 0.366383055189,0 1.50217052627,0.806042721415 2.49140477528,1.83191527594 c 1.72200035939,1.75863866491 1.83191527594,1.79527697043 2.49140477528,1.1724257766 c 0.403021360708,-0.32974474967 1.97846849802,-2.1250217201 3.48063902429,-3.92029869052 c 1.53880883179,-1.83191527594 2.96770274703,-3.40736241326 3.18753258014,-3.55391563533 c 0.696127804859,-0.512936277264 1.50217052627,-0.293106444151 2.38148985873,0.622851193821 z M 299.243211923,161.93273808 c -0.403021360708,0.769404415896 -0.512936277264,3.66383055189 -0.146553222076,4.57978818986 c 0.219829833113,0.512936277264 3.33408580222,0.586212888302 31.4723044407,0.586212888302 c 31.2524746076,0 31.2524746076,0 31.3990278297,-2.1250217201 c 0.0732766110377,-1.13578747109 0.0366383055189,-2.45476646977 -0.146553222076,-2.93106444151 c -0.293106444151,-0.806042721415 -0.293106444151,-0.806042721415 -31.2158363021,-0.806042721415 c -30.2266020531,0 -30.996006469,0 -31.3623895242,0.696127804859 z M 299.426403451,173.363889402 c -0.146553222075,0.219829833113 -0.32974474967,1.31897899868 -0.439659666227,2.45476646976 c -0.146553222075,1.61208544283 -0.0732766110377,2.23493663665 0.32974474967,2.56468138632 c 0.439659666227,0.32974474967 6.30178854925,0.439659666227 25.9765586129,0.366383055189 c 25.4269840301,-0.109914916557 25.4269840301,-0.109914916557 25.5368989467,-2.96770274703 c 0.109914916557,-2.82114952495 0.109914916557,-2.82114952495 -25.5368989467,-2.82114952495 c -17.7695781767,0 -25.7200904743,0.109914916557 -25.8666436963,0.403021360708 z M 270.995078368,191.280020801 c -2.01510680354,0.512936277264 -5.53238413335,2.7112346084 -7.10783127066,4.43323496778 c -0.732766110378,0.842681026934 -1.86855358146,2.60131969184 -2.5280430808,3.95693699604 c -1.06251086005,2.27157494217 -1.13578747109,2.67459630288 -1.13578747109,6.63153329892 c 0,4.14012852363 0.0366383055189,4.32332005123 1.28234069316,6.77808652099 c 2.38148985873,4.6530648009 6.15523532717,7.47421432585 11.1746831833,8.24361874175 c 1.9418301925,0.32974474967 3.15089427462,0.293106444151 4.94617124505,-0.0366383055189 c 4.83625632849,-0.915957637972 8.50008688038,-3.62719224637 10.588470295,-7.91387399208 c 1.46553222076,-2.93106444151 2.01510680354,-5.53238413335 1.79527697043,-8.57336349142 c -0.366383055189,-5.01944785609 -3.883660385,-10.1121723232 -8.64664010246,-12.4570238764 c -2.16166002561,-1.06251086005 -2.85778783047,-1.20906408212 -5.75221396646,-1.31897899868 c -1.79527697043,-0.0366383055189 -3.883660385,0.0732766110377 -4.61642649538,0.256468138632 z m 11.7608960716,9.15957637972 c 0.403021360708,0.403021360708 0.732766110378,0.842681026934 0.732766110378,0.98923424901 c -0.0366383055189,0.696127804859 -1.20906408212,2.19829833113 -5.2392776892,6.85136313203 c -2.49140477528,2.85778783047 -4.57978818986,4.98280955057 -4.94617124505,4.98280955057 c -0.366383055189,0 -2.01510680354,-1.3556173042 -3.66383055189,-3.00434105255 c -2.19829833113,-2.23493663665 -3.00434105255,-3.26080919118 -3.00434105255,-3.95693699604 c 0,-1.20906408212 0.622851193821,-1.83191527594 1.79527697043,-1.83191527594 c 0.65948949934,0 1.46553222076,0.586212888302 2.78451121943,2.05174510906 c 1.86855358146,2.05174510906 1.86855358146,2.05174510906 2.93106444151,0.622851193821 c 2.56468138632,-3.33408580222 6.52161838236,-7.43757602033 7.1811078817,-7.43757602033 c 0.366383055189,0 1.02587255453,0.32974474967 1.42889391524,0.732766110378 z M 299.243211923,200.03657582 c -0.439659666227,0.842681026934 -0.476297971745,4.03021360708 -0.0732766110378,4.68970310642 c 0.219829833113,0.366383055189 6.96127804859,0.476297971745 30.8860915524,0.476297971745 c 16.7803439276,0 30.8494532469,0 31.2158363021,0 c 0.586212888302,0 0.65948949934,-0.32974474967 0.549574582783,-2.85778783047 c -0.109914916557,-2.82114952495 -0.109914916557,-2.82114952495 -31.142559691,-2.93106444151 c -30.4097935807,-0.0732766110377 -31.0326447745,-0.0732766110377 -31.4356661352,0.622851193821 z M 389.739826555,212.090578336 c -9.63587435147,6.81472482651 -17.1833652884,10.8083001281 -25.6468138632,13.4828964309 c -4.98280955057,1.57544713731 -11.8341726826,3.04097935807 -16.8536205387,3.62719224637 c -6.55825668788,0.732766110378 -8.24361874175,1.1724257766 -8.93974654661,2.16166002561 c -0.293106444151,0.439659666227 -0.622851193821,2.05174510906 -0.696127804859,3.55391563533 c -0.512936277264,7.10783127066 -1.02587255453,27.9183888054 -0.842681026934,33.4874112443 c 0.256468138632,9.04966146316 2.01510680354,18.2458761484 4.98280955057,26.5994098067 c 1.24570238764,3.40736241326 1.09914916557,3.1142559691 3.44400071877,8.09706551967 c 0.879319332453,1.97846849802 1.75863866491,3.59055394085 1.9418301925,3.59055394085 c 0.146553222076,0 1.02587255453,-0.183191527594 1.9418301925,-0.403021360708 c 0.915957637972,-0.219829833113 2.74787291392,-0.512936277264 4.14012852363,-0.622851193821 c 2.45476646977,-0.256468138632 2.45476646977,-0.256468138632 1.09914916557,-2.27157494217 c -2.38148985873,-3.51727732981 -5.86212888302,-12.2371940433 -7.43757602033,-18.6855358146 c -0.183191527594,-0.696127804859 -0.65948949934,-3.44400071877 -1.09914916557,-6.04532041062 c -0.696127804859,-4.39659666227 -0.732766110378,-6.08195871613 -0.65948949934,-22.7157494217 c 0.109914916557,-17.9527697043 0.109914916557,-17.9527697043 4.50651157882,-18.6122592036 c 8.97638485213,-1.31897899868 17.7329398711,-3.51727732981 24.1812816425,-6.0086821051 c 3.66383055189,-1.42889391524 10.2587255453,-4.57978818986 13.3729815144,-6.37506516029 c 1.09914916557,-0.65948949934 3.15089427462,-1.86855358146 4.50651157882,-2.74787291392 c 1.3556173042,-0.879319332453 2.63795799736,-1.61208544283 2.82114952495,-1.61208544283 c 0.403021360708,0 1.68536205387,0.65948949934 2.56468138632,1.31897899868 c 0.293106444151,0.219829833113 2.78451121943,1.64872374835 5.53238413335,3.18753258014 c 10.9914916557,6.11859702165 23.2653240045,10.2220872398 35.5025180478,11.8341726826 c 2.5280430808,0.32974474967 4.83625632849,0.732766110378 5.12936277264,0.879319332453 c 0.476297971745,0.219829833113 0.549574582783,2.60131969184 0.549574582783,17.9894080098 c -0.0366383055189,17.6596632601 -0.0366383055189,17.7695781767 -1.02587255453,23.1554090879 c -1.02587255453,5.60566074439 -2.49140477528,11.1014065722 -4.17676682915,15.461364929 c -0.549574582783,1.39225560972 -1.97846849802,4.4698732733 -3.15089427462,6.77808652099 c -3.99357530156,7.76732077 -8.42681026934,13.9591944027 -14.4354923744,20.1877063409 c -4.10349021811,4.25004344019 -9.1229380742,8.3535336583 -15.1316201793,12.3104706543 c -4.25004344019,2.85778783047 -10.588470295,6.33842685477 -11.4311513219,6.33842685477 c -0.293106444151,0 -2.19829833113,-0.915957637972 -4.21340513467,-2.01510680354 c -2.05174510906,-1.09914916557 -3.84702207948,-2.01510680354 -4.03021360708,-2.01510680354 c -0.183191527594,0 -0.366383055189,1.57544713731 -0.403021360708,3.55391563533 c -0.0366383055189,1.9418301925 -0.256468138632,3.73710716293 -0.439659666227,3.95693699604 c -0.219829833113,0.256468138632 -0.293106444151,0.696127804859 -0.183191527594,0.952595943491 c 0.293106444151,0.806042721415 7.87723568656,4.35995835675 9.23285299076,4.35995835675 c 2.01510680354,0 10.6251086005,-4.50651157882 17.1100886773,-8.93974654661 c 8.46344857486,-5.78885227198 16.7803439276,-13.5928113475 22.4959195886,-21.1036639789 c 3.48063902429,-4.54314988434 5.60566074439,-7.9505122976 8.5367251859,-13.8126411806 c 4.03021360708,-7.87723568656 6.15523532717,-14.0324710137 8.24361874175,-23.7416219762 c 1.02587255453,-4.76297971745 1.02587255453,-4.76297971745 1.1724257766,-27.5153674447 c 0.109914916557,-21.5433236451 0.0732766110378,-22.7523877272 -0.549574582783,-23.30196231 c -0.476297971745,-0.439659666227 -1.9418301925,-0.732766110378 -5.2392776892,-1.02587255453 c -5.75221396646,-0.476297971745 -8.24361874175,-0.879319332453 -13.556173042,-2.05174510906 c -7.91387399208,-1.79527697043 -13.7760028751,-3.883660385 -21.0670256734,-7.43757602033 c -5.09272446712,-2.5280430808 -10.1854489342,-5.64229904991 -14.1790242358,-8.68327840797 c -1.31897899868,-1.06251086005 -2.41812816425,-1.61208544283 -3.1142559691,-1.61208544283 c -0.65948949934,0 -2.23493663665,0.879319332453 -4.50651157882,2.49140477528 z M 299.499680062,211.32117392 c -0.366383055189,0.622851193821 -0.696127804859,3.81038377396 -0.476297971745,4.68970310642 c 0.219829833113,0.915957637972 0.219829833113,0.915957637972 25.9765586129,0.842681026934 c 25.7200904743,-0.109914916557 25.7200904743,-0.109914916557 25.7200904743,-2.85778783047 c 0,-2.74787291392 0,-2.74787291392 -25.5368989467,-2.85778783047 c -14.0324710137,-0.0366383055189 -25.6101755577,0.0366383055189 -25.6834521687,0.183191527594 z M 393.989869995,227.881688014 c -0.366383055189,0.549574582783 -10.1854489342,5.8254905775 -14.3988540689,7.69404415896 c -2.16166002561,0.98923424901 -5.93540549406,2.45476646977 -8.3535336583,3.2974474967 c -5.20263938368,1.75863866491 -12.8966835426,3.59055394085 -16.5971524001,3.92029869052 c -1.50217052627,0.146553222076 -2.82114952495,0.476297971745 -3.04097935807,0.732766110378 c -0.293106444151,0.366383055189 -0.366383055189,4.72634141194 -0.219829833113,15.4247266234 c 0.219829833113,16.7070673166 0.403021360708,18.9420039533 2.63795799736,27.0390694729 c 0.879319332453,3.22417088566 3.00434105255,8.79319332453 4.43323496778,11.650981155 c 0.696127804859,1.39225560972 2.16166002561,4.03021360708 3.26080919118,5.89876718854 c 1.50217052627,2.60131969184 2.23493663665,3.48063902429 2.96770274703,3.66383055189 c 1.90519188698,0.512936277264 6.88800143755,3.18753258014 9.15957637972,4.98280955057 c 1.24570238764,1.02587255453 3.07761766359,2.7112346084 4.03021360708,3.77374546844 c 2.30821324769,2.5280430808 4.98280955057,6.66817160444 5.75221396646,8.90310824109 c 0.366383055189,0.98923424901 0.806042721415,2.05174510906 0.952595943491,2.34485155321 c 0.183191527594,0.293106444151 1.02587255453,0.98923424901 1.90519188698,1.53880883179 c 3.26080919118,2.01510680354 7.58412924241,4.32332005123 8.06042721415,4.32332005123 c 0.769404415897,0 8.09706551967,-4.54314988434 11.3212364053,-7.03455465963 c 6.15523532717,-4.72634141194 8.61000179694,-6.88800143755 12.6035770985,-11.2845980998 c 2.7112346084,-2.96770274703 6.11859702165,-7.40093771481 8.17034213071,-10.661746906 c 2.05174510906,-3.26080919118 4.68970310642,-8.61000179694 6.15523532717,-12.4203855709 c 1.90519188698,-4.98280955057 3.1142559691,-9.8923424901 3.883660385,-15.8643862897 c 0.622851193821,-4.79961802297 0.696127804859,-7.40093771481 0.622851193821,-19.1251954809 c -0.109914916557,-13.5195347365 -0.109914916557,-13.5195347365 -3.22417088566,-13.9591944027 c -4.4698732733,-0.586212888302 -10.6983852115,-2.1250217201 -17.0368120663,-4.25004344019 c -5.71557566095,-1.90519188698 -14.2523008468,-5.86212888302 -19.5648551471,-9.04966146316 c -1.68536205387,-1.02587255453 -3.1142559691,-1.86855358146 -3.18753258014,-1.86855358146 c -0.0732766110378,0 -0.183191527594,0.146553222076 -0.293106444151,0.32974474967 z m 24.3278348645,29.6770274703 c 1.50217052627,1.06251086005 2.56468138632,2.93106444151 2.56468138632,4.50651157882 c 0,0.806042721415 -0.183191527594,1.79527697043 -0.439659666227,2.23493663665 c -0.366383055189,0.732766110378 -9.1229380742,10.6251086005 -14.9484286517,16.9268971497 c -4.10349021811,4.43323496778 -10.8449384336,12.0173642102 -12.6035770985,14.1790242358 c -0.952595943491,1.13578747109 -2.27157494217,2.30821324769 -2.93106444151,2.63795799736 c -1.53880883179,0.732766110378 -3.59055394085,0.732766110378 -4.94617124505,0.0366383055189 c -0.586212888302,-0.293106444151 -4.25004344019,-4.25004344019 -8.13370382519,-8.82983163005 c -3.92029869052,-4.54314988434 -7.29102279826,-8.64664010246 -7.54749093689,-9.08629976868 c -0.622851193821,-1.06251086005 -0.586212888302,-3.33408580222 0.0366383055189,-4.54314988434 c 0.293106444151,-0.549574582783 0.952595943491,-1.39225560972 1.50217052627,-1.90519188698 c 0.842681026934,-0.806042721415 1.31897899868,-0.915957637972 3.55391563533,-0.915957637972 c 2.60131969184,0 2.60131969184,0 5.45910752231,3.1142559691 c 1.61208544283,1.72200035939 3.84702207948,4.28668174571 5.01944785609,5.75221396646 c 1.31897899868,1.68536205387 2.34485155321,2.63795799736 2.82114952495,2.63795799736 c 0.476297971745,0.0366383055189 1.24570238764,-0.586212888302 2.08838341458,-1.72200035939 c 1.46553222076,-1.9418301925 6.26515024373,-7.43757602033 11.7975343771,-13.4462581254 c 2.05174510906,-2.23493663665 4.87289463401,-5.34919260576 6.26515024373,-6.92463974307 c 3.99357530156,-4.57978818986 4.10349021811,-4.6530648009 5.56902243887,-5.20263938368 c 1.64872374835,-0.586212888302 3.59055394085,-0.366383055189 4.87289463401,0.549574582783 z M 271.214908201,229.493773457 c -2.93106444151,0.98923424901 -5.2392776892,2.45476646977 -7.10783127066,4.4698732733 c -1.9418301925,2.1250217201 -3.70046885741,5.31255430024 -3.70046885741,6.70480990996 c 0,0.622851193821 0.403021360708,0.879319332453 2.1250217201,1.3556173042 c 1.13578747109,0.293106444151 2.45476646976,0.732766110378 2.93106444151,0.915957637972 c 0.476297971745,0.219829833113 1.50217052627,0.256468138632 2.30821324769,0.146553222076 c 1.28234069316,-0.219829833113 1.61208544283,-0.109914916557 2.63795799736,0.842681026934 c 1.1724257766,1.13578747109 2.49140477528,1.9418301925 3.1142559691,1.9418301925 c 0.183191527594,0 1.02587255453,-0.879319332453 1.83191527594,-1.9418301925 c 0.806042721415,-1.02587255453 2.38148985873,-2.85778783047 3.48063902429,-4.03021360708 c 1.72200035939,-1.83191527594 2.16166002561,-2.1250217201 2.85778783047,-1.90519188698 c 0.952595943491,0.293106444151 1.75863866491,1.20906408212 1.79527697043,1.90519188698 c 0,0.476297971745 -2.7112346084,3.81038377396 -4.90953293953,6.08195871613 c -0.732766110378,0.732766110378 -1.24570238764,1.53880883179 -1.13578747109,1.72200035939 c 0.146553222076,0.219829833113 0.915957637972,0.732766110378 1.75863866491,1.1724257766 c 0.842681026934,0.403021360708 2.7112346084,1.53880883179 4.14012852363,2.5280430808 c 1.42889391524,0.952595943491 2.89442613599,1.79527697043 3.26080919118,1.86855358146 c 1.39225560972,0.219829833113 3.48063902429,-5.20263938368 3.48063902429,-9.08629976868 c 0,-4.0668519126 -2.38148985873,-8.97638485213 -5.56902243887,-11.6143428495 c -0.879319332453,-0.696127804859 -2.56468138632,-1.72200035939 -3.77374546844,-2.27157494217 c -1.61208544283,-0.769404415897 -2.89442613599,-1.02587255453 -5.12936277264,-1.13578747109 c -1.83191527594,-0.109914916557 -3.48063902429,0.0366383055189 -4.39659666227,0.32974474967 z M 299.316488534,237.883945421 c -0.586212888302,0.586212888302 -0.549574582783,3.99357530156 0.0366383055189,4.79961802297 c 0.403021360708,0.586212888302 1.64872374835,0.622851193821 14.9117903462,0.549574582783 c 14.47213068,-0.109914916557 14.47213068,-0.109914916557 14.47213068,-2.85778783047 c 0,-2.74787291392 0,-2.74787291392 -14.47213068,-2.85778783047 c -10.9914916557,-0.0732766110378 -14.618683902,0.0366383055189 -14.9484286517,0.366383055189 z M 232.341666046,246.384032301 c -6.4117034658,0.806042721415 -8.71991671349,1.31897899868 -15.3514500124,3.62719224637 c -7.80395907552,2.67459630288 -16.0475778173,7.07119296514 -21.6166002561,11.5410662384 c -8.50008688038,6.85136313203 -15.9376629007,15.9010245952 -20.4808127851,24.8407711418 c -2.49140477528,4.94617124505 -3.48063902429,7.29102279826 -4.83625632849,11.4677896274 c -2.96770274703,9.08629976868 -4.03021360708,19.5282168416 -3.04097935807,29.5671125537 c 0.879319332453,9.01302315764 3.84702207948,18.8687273422 8.02378890863,26.7826013343 c 2.63795799736,4.94617124505 6.88800143755,11.3212364053 9.26949129628,13.8859177917 c 1.1724257766,1.24570238764 2.08838341458,2.38148985873 2.08838341458,2.49140477528 c 0,0.146553222076 -2.16166002561,2.45476646977 -4.83625632849,5.16600107816 c -4.50651157882,4.57978818986 -4.94617124505,4.94617124505 -6.52161838236,5.16600107816 c -3.55391563533,0.512936277264 -3.04097935807,0.109914916557 -18.8687273422,14.5820455965 c -5.01944785609,4.61642649538 -10.1121723232,9.26949129628 -11.2845980998,10.3320021563 c -2.78451121943,2.5280430808 -3.92029869052,4.94617124505 -3.92029869052,8.31689535279 c 0,1.75863866491 0.219829833113,2.89442613599 0.732766110378,3.92029869052 c 1.13578747109,2.27157494217 2.93106444151,4.0668519126 4.94617124505,4.98280955057 c 1.39225560972,0.65948949934 2.49140477528,0.879319332453 4.50651157882,0.879319332453 c 2.16166002561,0 3.07761766359,-0.183191527594 4.6530648009,-0.98923424901 c 1.20906408212,-0.586212888302 2.93106444151,-1.90519188698 4.28668174571,-3.37072410774 c 5.75221396646,-6.04532041062 13.2997049034,-14.1057476248 16.450599178,-17.5863866491 c 1.90519188698,-2.08838341458 4.0668519126,-4.4698732733 4.83625632849,-5.31255430024 c 0.769404415897,-0.806042721415 1.64872374835,-1.97846849802 1.97846849802,-2.60131969184 c 0.32974474967,-0.586212888302 0.65948949934,-2.19829833113 0.769404415897,-3.59055394085 c 0.146553222076,-1.97846849802 0.32974474967,-2.60131969184 0.952595943491,-3.04097935807 c 0.403021360708,-0.293106444151 2.7112346084,-2.45476646976 5.09272446712,-4.79961802297 c 3.15089427462,-3.1142559691 4.43323496778,-4.21340513467 4.79961802297,-3.95693699604 c 1.97846849802,1.50217052627 9.7091509625,6.44834177132 11.9074492936,7.58412924241 c 3.00434105255,1.61208544283 8.28025704727,3.73710716293 12.6768537095,5.16600107816 c 1.61208544283,0.549574582783 5.09272446712,1.39225560972 7.69404415896,1.90519188698 c 3.62719224637,0.732766110378 6.33842685477,1.02587255453 11.3578747109,1.1724257766 c 6.99791635411,0.219829833113 11.0281299612,-0.109914916557 17.2932802049,-1.3556173042 c 6.08195871613,-1.20906408212 13.8492794861,-3.95693699604 20.0045148133,-6.99791635411 c 2.08838341458,-1.06251086005 2.82114952495,-1.61208544283 2.82114952495,-2.16166002561 c 0,-1.02587255453 1.39225560972,-4.94617124505 2.60131969184,-7.32766110378 c 0.549574582783,-1.09914916557 3.48063902429,-4.98280955057 6.55825668788,-8.61000179694 c 3.04097935807,-3.62719224637 6.44834177132,-7.76732077 7.62076754793,-9.15957637972 c 1.13578747109,-1.42889391524 4.87289463401,-5.93540549406 8.31689535279,-10.0388957122 c 3.40736241326,-4.10349021811 6.55825668788,-7.98715060312 6.99791635411,-8.61000179694 c 1.09914916557,-1.68536205387 3.00434105255,-10.9548533501 3.51727732981,-17.0368120663 c 0.32974474967,-3.95693699604 0.32974474967,-6.4117034658 0,-10.0388957122 c -0.696127804859,-7.98715060312 -2.60131969184,-15.7544713731 -5.67893735543,-23.1554090879 c -1.31897899868,-3.07761766359 -4.39659666227,-8.64664010246 -6.77808652099,-12.0906408212 c -6.44834177132,-9.34276790731 -15.6445564566,-17.6963015656 -25.5735372522,-23.1187707824 c -6.66817160444,-3.62719224637 -15.7911096786,-6.77808652099 -23.228685699,-8.02378890863 c -4.76297971745,-0.806042721415 -15.607918151,-0.98923424901 -20.7372809237,-0.403021360708 z m 18.1359612318,10.3320021563 c 6.96127804859,0.98923424901 12.4570238764,2.78451121943 19.6747700636,6.30178854925 c 15.461364929,7.62076754793 27.4420908336,21.7997917837 32.6813685228,38.763327239 c 4.0668519126,13.1531516813 3.48063902429,28.5778783047 -1.61208544283,41.657753375 c -2.93106444151,7.51085263137 -6.37506516029,13.3729815144 -11.2845980998,19.2351103974 c -2.96770274703,3.55391563533 -8.57336349142,8.46344857486 -12.6768537095,11.1014065722 c -3.40736241326,2.19829833113 -11.3212364053,5.93540549406 -15.3880883179,7.29102279826 c -6.22851193821,2.01510680354 -11.6876194605,2.96770274703 -18.1359612318,3.18753258014 c -5.20263938368,0.146553222075 -6.55825668788,0.0732766110377 -11.9074492936,-0.806042721415 c -7.80395907552,-1.28234069316 -14.3255774579,-3.40736241326 -20.8105575347,-6.81472482651 c -2.67459630288,-1.39225560972 -6.63153329892,-3.84702207948 -8.79319332453,-5.42246921679 c -4.6530648009,-3.44400071877 -10.4052787674,-9.23285299076 -13.5195347365,-13.5928113475 c -2.45476646976,-3.44400071877 -5.09272446712,-8.06042721415 -6.70480990996,-11.7608960716 c -2.30821324769,-5.2392776892 -3.2974474967,-8.57336349142 -4.83625632849,-16.6337907056 c -0.549574582783,-2.89442613599 -0.549574582783,-15.53464154 0,-18.1359612318 c 0.256468138632,-1.09914916557 0.622851193821,-2.85778783047 0.806042721415,-3.84702207948 c 0.732766110378,-3.55391563533 3.04097935807,-10.2953638508 4.90953293953,-14.2889391524 c 3.33408580222,-7.07119296514 7.73068246448,-13.2264282923 13.0798750702,-18.355791065 c 3.73710716293,-3.55391563533 7.21774618722,-6.26515024373 11.2479597943,-8.75655501901 c 3.37072410774,-2.05174510906 10.0388957122,-5.31255430024 10.9914916557,-5.31255430024 c 0.256468138632,0 1.13578747109,-0.32974474967 1.90519188698,-0.732766110378 c 1.72200035939,-0.879319332453 9.37940621283,-2.78451121943 13.0065984592,-3.26080919118 c 4.28668174571,-0.512936277264 13.1531516813,-0.439659666227 17.3665568159,0.183191527594 z M 275.794696391,280.714124572 c -1.20906408212,0.476297971745 -2.49140477528,1.72200035939 -3.18753258014,3.07761766359 c -0.32974474967,0.622851193821 -0.586212888302,2.1250217201 -0.622851193821,3.51727732981 c -0.0366383055189,2.45476646976 -0.0366383055189,2.45476646976 -5.67893735543,8.57336349142 c -5.20263938368,5.60566074439 -5.71557566095,6.08195871613 -6.5948949934,5.8254905775 c -0.512936277264,-0.146553222076 -1.86855358146,-0.256468138632 -3.00434105255,-0.293106444151 c -1.57544713731,0 -2.27157494217,0.183191527594 -3.07761766359,0.806042721415 c -0.549574582783,0.439659666227 -1.28234069316,0.806042721415 -1.57544713731,0.806042721415 c -0.32974474967,0 -2.1250217201,-0.622851193821 -3.99357530156,-1.3556173042 c -3.07761766359,-1.24570238764 -3.44400071877,-1.46553222076 -3.73710716293,-2.56468138632 c -0.476297971745,-1.64872374835 -2.05174510906,-3.59055394085 -3.51727732981,-4.28668174571 c -1.50217052627,-0.732766110378 -3.84702207948,-0.769404415896 -5.42246921679,-0.0732766110378 c -2.19829833113,0.915957637972 -3.92029869052,3.73710716293 -3.92029869052,6.44834177132 c 0,0.696127804859 -2.01510680354,2.85778783047 -9.01302315764,9.67251265698 c -8.97638485213,8.75655501901 -8.97638485213,8.75655501901 -9.78242757354,8.02378890863 c -1.3556173042,-1.24570238764 -2.30821324769,-1.57544713731 -4.4698732733,-1.57544713731 c -1.57544713731,0 -2.38148985873,0.219829833113 -3.22417088566,0.806042721415 c -0.65948949934,0.476297971745 -1.46553222076,1.1724257766 -1.79527697043,1.57544713731 c -0.915957637972,1.09914916557 -1.50217052627,3.59055394085 -1.24570238764,5.20263938368 c 0.256468138632,1.39225560972 0.219829833113,1.46553222076 -2.85778783047,4.43323496778 c -2.7112346084,2.63795799736 -3.2974474967,3.00434105255 -4.43323496778,3.00434105255 c -0.732766110378,0 -1.83191527594,0.219829833113 -2.49140477528,0.512936277264 c -3.66383055189,1.50217052627 -3.37072410774,7.1811078817 0.403021360708,8.28025704727 c 2.82114952495,0.842681026934 5.93540549406,-1.3556173042 5.93540549406,-4.21340513467 c 0,-0.98923424901 0.476297971745,-1.64872374835 3.00434105255,-4.14012852363 c 3.04097935807,-2.96770274703 3.04097935807,-2.96770274703 5.78885227198,-2.74787291392 c 2.1250217201,0.146553222075 3.04097935807,0.0732766110377 3.84702207948,-0.366383055189 c 1.50217052627,-0.769404415896 2.63795799736,-2.05174510906 3.18753258014,-3.62719224637 c 0.32974474967,-0.915957637972 3.15089427462,-3.92029869052 9.8923424901,-10.5151936839 c 5.16600107816,-5.05608616161 9.52595943491,-9.19621468524 9.7091509625,-9.19621468524 c 0.146553222076,0 1.02587255453,0.256468138632 1.90519188698,0.586212888302 c 2.19829833113,0.732766110378 4.50651157882,0.366383055189 6.08195871613,-0.98923424901 c 0.65948949934,-0.586212888302 1.42889391524,-1.06251086005 1.72200035939,-1.06251086005 c 0.293106444151,0 1.90519188698,0.549574582783 3.62719224637,1.24570238764 c 3.07761766359,1.24570238764 3.07761766359,1.24570238764 3.33408580222,2.78451121943 c 0.549574582783,3.26080919118 3.84702207948,5.75221396646 7.14446957618,5.38583091128 c 1.86855358146,-0.183191527594 3.99357530156,-1.72200035939 4.87289463401,-3.40736241326 c 0.293106444151,-0.586212888302 0.549574582783,-2.01510680354 0.549574582783,-3.18753258014 c 0.0366383055189,-2.1250217201 0.0366383055189,-2.1250217201 3.18753258014,-5.31255430024 c 1.72200035939,-1.75863866491 4.43323496778,-4.57978818986 6.04532041062,-6.26515024373 c 2.89442613599,-3.07761766359 2.89442613599,-3.07761766359 5.49574582783,-3.1142559691 c 2.16166002561,-0.0366383055189 2.78451121943,-0.183191527594 4.03021360708,-1.06251086005 c 0.806042721415,-0.549574582783 1.68536205387,-1.42889391524 1.97846849802,-1.97846849802 c 0.293106444151,-0.549574582783 0.512936277264,-2.01510680354 0.512936277264,-3.44400071877 c 0,-1.9418301925 -0.183191527594,-2.7112346084 -0.769404415897,-3.51727732981 c -0.403021360708,-0.549574582783 -1.31897899868,-1.39225560972 -1.97846849802,-1.86855358146 c -0.879319332453,-0.586212888302 -1.72200035939,-0.806042721415 -3.07761766359,-0.769404415897 c -1.02587255453,0 -2.27157494217,0.183191527594 -2.78451121943,0.366383055189 z M 271.581291257,308.229492017 c -0.293106444151,1.24570238764 -0.0366383055189,61.4790766607 0.256468138632,61.4790766607 c 0.549574582783,0 4.83625632849,-2.7112346084 7.54749093689,-4.76297971745 c 1.53880883179,-1.1724257766 3.70046885741,-2.96770274703 4.76297971745,-3.99357530156 c 1.90519188698,-1.86855358146 1.90519188698,-1.86855358146 1.83191527594,-27.5886440557 c -0.109914916557,-25.7567287798 -0.109914916557,-25.7567287798 -7.14446957618,-25.8666436963 c -7.07119296514,-0.0732766110378 -7.07119296514,-0.0732766110378 -7.25438449274,0.732766110378 z M 250.001329306,323.141282363 c -0.0732766110378,0.109914916557 -0.146553222076,12.2371940433 -0.183191527594,26.9291545564 c -0.0732766110378,26.7093247233 -0.0732766110378,26.7093247233 1.50217052627,26.4528565846 c 2.41812816425,-0.366383055189 6.37506516029,-1.31897899868 9.81906587906,-2.38148985873 c 3.1142559691,-0.952595943491 3.1142559691,-0.952595943491 3.1142559691,-25.9765586129 c 0,-25.0606009749 0,-25.0606009749 -7.07119296514,-25.133877586 c -3.883660385,-0.0732766110377 -7.10783127066,0 -7.1811078817,0.109914916557 z M 235.052900654,327.83098547 c -6.52161838236,0.109914916557 -6.52161838236,0.109914916557 -6.5948949934,23.6683453652 c -0.0732766110378,12.9333218482 -0.0732766110378,23.7049836707 0,23.9248135038 c 0.0366383055189,0.183191527594 1.28234069316,0.549574582783 2.74787291392,0.806042721415 c 4.14012852363,0.65948949934 10.4785553784,1.24570238764 11.0647682667,1.02587255453 c 0.476297971745,-0.183191527594 0.549574582783,-3.55391563533 0.549574582783,-24.7308562252 c 0,-22.0196216168 -0.0732766110378,-24.5110263921 -0.586212888302,-24.7308562252 c -0.32974474967,-0.109914916557 -0.586212888302,-0.183191527594 -0.622851193821,-0.146553222076 c -0.0366383055189,0.0366383055189 -3.00434105255,0.146553222076 -6.55825668788,0.183191527594 z M 207.134511849,340.324647652 c -0.0732766110378,0.146553222076 -0.256468138632,5.89876718854 -0.366383055189,12.7501303206 c -0.146553222076,9.59923604595 -0.109914916557,12.6035770985 0.256468138632,13.0432367647 c 1.31897899868,1.61208544283 12.9333218482,7.54749093689 13.9591944027,7.14446957618 c 0.293106444151,-0.109914916557 0.366383055189,-5.27591599472 0.293106444151,-16.7070673166 c -0.0732766110378,-16.523875789 -0.0732766110378,-16.523875789 -7.03455465963,-16.523875789 c -3.81038377396,0 -6.99791635411,0.146553222076 -7.10783127066,0.293106444151 z M 299.243211923,250.121139464 c -0.439659666227,1.09914916557 -0.476297971745,3.81038377396 -0.0732766110378,4.4698732733 c 0.256468138632,0.32974474967 3.48063902429,0.439659666227 14.9484286517,0.366383055189 c 14.618683902,-0.109914916557 14.618683902,-0.109914916557 14.7285988186,-2.08838341458 c 0.0732766110377,-1.09914916557 0.0366383055189,-2.38148985873 -0.109914916557,-2.85778783047 c -0.183191527594,-0.842681026934 -0.183191527594,-0.842681026934 -14.6553222076,-0.842681026934 c -14.47213068,0 -14.47213068,0 -14.8385137351,0.952595943491 z M 351.086414232,312.223067319 c -5.93540549406,0.879319332453 -10.1488106287,2.96770274703 -14.3255774579,7.10783127066 c -2.78451121943,2.78451121943 -17.6596632601,20.1877063409 -19.6014934526,22.8989409493 c -1.39225560972,1.97846849802 -5.34919260576,6.88800143755 -8.02378890863,9.8923424901 c -1.31897899868,1.50217052627 -4.0668519126,4.72634141194 -6.11859702165,7.14446957618 c -2.01510680354,2.41812816425 -6.26515024373,7.43757602033 -9.41604451835,11.1746831833 c -3.55391563533,4.17676682915 -6.15523532717,7.62076754793 -6.81472482651,8.97638485213 c -1.75863866491,3.59055394085 -2.34485155321,6.44834177132 -2.34485155321,11.3578747109 c 0,3.84702207948 0.146553222075,4.76297971745 1.02587255453,7.32766110378 c 3.15089427462,9.08629976868 9.63587435147,15.0949818738 18.2458761484,16.8169822332 c 3.55391563533,0.732766110378 6.63153329892,0.732766110378 10.3686404618,0.0366383055189 c 4.83625632849,-0.952595943491 10.3320021563,-3.92029869052 12.9699601537,-7.03455465963 c 2.78451121943,-3.33408580222 8.02378890863,-9.48932112939 11.9807259047,-14.0691093193 c 2.19829833113,-2.5280430808 5.64229904991,-6.55825668788 7.65740585345,-8.97638485213 c 2.01510680354,-2.38148985873 4.39659666227,-5.16600107816 5.34919260576,-6.19187363269 c 0.915957637972,-0.98923424901 3.40736241326,-3.883660385 5.53238413335,-6.4117034658 c 2.1250217201,-2.5280430808 7.1811078817,-8.3535336583 11.2479597943,-13.0065984592 c 7.40093771481,-8.3535336583 9.08629976868,-10.7716618226 9.92898079562,-14.0691093193 c 0.183191527594,-0.842681026934 0.549574582783,-2.19829833113 0.769404415897,-3.07761766359 c 0.256468138632,-0.842681026934 0.439659666227,-3.18753258014 0.439659666227,-5.20263938368 c 0,-2.96770274703 -0.183191527594,-4.25004344019 -0.98923424901,-6.74144821547 c -1.39225560972,-4.35995835675 -2.96770274703,-7.14446957618 -5.71557566095,-10.0755340177 c -3.95693699604,-4.21340513467 -8.86646993557,-6.88800143755 -14.1790242358,-7.76732077 c -3.55391563533,-0.549574582783 -4.72634141194,-0.586212888302 -7.98715060312,-0.109914916557 z m 9.15957637972,6.4117034658 c 3.18753258014,0.769404415896 6.37506516029,2.7112346084 8.86646993557,5.42246921679 c 3.883660385,4.10349021811 5.53238413335,8.90310824109 5.12936277264,14.6919605131 c -0.146553222076,2.23493663665 -0.512936277264,3.81038377396 -1.3556173042,5.78885227198 c -0.915957637972,2.23493663665 -2.01510680354,3.77374546844 -6.33842685477,8.79319332453 c -12.1272791267,14.1057476248 -17.9527697043,20.7739192292 -18.1725995374,20.7739192292 c -0.109914916557,0 -2.60131969184,-2.16166002561 -5.53238413335,-4.79961802297 c -2.93106444151,-2.67459630288 -6.88800143755,-6.15523532717 -8.79319332453,-7.73068246448 c -3.1142559691,-2.63795799736 -9.78242757354,-8.50008688038 -13.7393645696,-12.0906408212 c -1.46553222076,-1.3556173042 -1.46553222076,-1.3556173042 0.0366383055189,-2.93106444151 c 0.806042721415,-0.879319332453 2.19829833113,-2.49140477528 3.07761766359,-3.59055394085 c 3.92029869052,-4.87289463401 13.9225560972,-16.523875789 16.1208544283,-18.6855358146 c 3.44400071877,-3.48063902429 7.40093771481,-5.53238413335 11.9074492936,-6.19187363269 c 2.60131969184,-0.403021360708 5.75221396646,-0.183191527594 8.79319332453,0.549574582783 z m -37.8840079065,39.6060082659 c 8.64664010246,7.62076754793 16.0109395118,14.0324710137 19.2351103974,16.7803439276 c 2.85778783047,2.41812816425 3.59055394085,3.48063902429 2.7112346084,4.03021360708 c -0.219829833113,0.146553222076 -5.2392776892,5.89876718854 -11.1746831833,12.8234069316 c -5.93540549406,6.92463974307 -11.3212364053,13.0065984592 -11.9807259047,13.5195347365 c -0.65948949934,0.476297971745 -2.5280430808,1.53880883179 -4.14012852363,2.30821324769 c -2.74787291392,1.31897899868 -3.18753258014,1.39225560972 -6.99791635411,1.50217052627 c -3.07761766359,0.109914916557 -4.61642649538,0 -6.22851193821,-0.476297971745 c -3.04097935807,-0.879319332453 -5.78885227198,-2.5280430808 -8.17034213071,-4.90953293953 c -3.59055394085,-3.59055394085 -5.53238413335,-8.3535336583 -5.53238413335,-13.4828964309 c 0,-3.18753258014 0.549574582783,-5.93540549406 1.61208544283,-8.17034213071 c 0.439659666227,-0.915957637972 3.37072410774,-4.68970310642 6.48498007684,-8.39017196382 c 3.07761766359,-3.66383055189 6.70480990996,-7.9505122976 7.9505122976,-9.48932112939 c 1.28234069316,-1.57544713731 3.99357530156,-4.76297971745 6.0086821051,-7.10783127066 c 2.93106444151,-3.44400071877 3.81038377396,-4.25004344019 4.28668174571,-3.99357530156 c 0.32974474967,0.183191527594 3.00434105255,2.45476646977 5.93540549406,5.05608616161 z M 393.403657107,352.342011862 c -0.512936277264,0.0732766110378 -2.1250217201,0.32974474967 -3.62719224637,0.549574582783 c -4.0668519126,0.586212888302 -9.37940621283,2.78451121943 -13.4096198199,5.49574582783 c -2.38148985873,1.61208544283 -6.11859702165,5.16600107816 -7.65740585345,7.25438449274 c -3.00434105255,4.10349021811 -5.38583091128,9.19621468524 -6.26515024373,13.4828964309 c -1.20906408212,6.0086821051 -1.02587255453,11.5410662384 0.622851193821,17.1467269828 c 0.806042721415,2.82114952495 3.1142559691,7.62076754793 4.61642649538,9.67251265698 c 2.34485155321,3.18753258014 4.79961802297,5.75221396646 7.3642994093,7.69404415896 c 5.31255430024,4.0668519126 11.1380448777,6.33842685477 17.8794930932,7.07119296514 c 2.93106444151,0.293106444151 4.61642649538,0.293106444151 7.1811078817,-0.0732766110378 c 4.28668174571,-0.586212888302 8.28025704727,-1.83191527594 11.8708109881,-3.73710716293 c 3.55391563533,-1.83191527594 4.72634141194,-2.7112346084 8.13370382519,-5.93540549406 c 4.43323496778,-4.28668174571 7.03455465963,-8.42681026934 9.04966146316,-14.5087689855 c 0.98923424901,-2.96770274703 1.02587255453,-3.44400071877 1.02587255453,-10.0755340177 c 0.0366383055189,-6.88800143755 0.0366383055189,-6.99791635411 -1.13578747109,-10.2587255453 c -1.83191527594,-5.2392776892 -4.6530648009,-9.8923424901 -7.9505122976,-13.2264282923 c -4.17676682915,-4.14012852363 -9.23285299076,-7.29102279826 -14.4354923744,-8.93974654661 c -4.25004344019,-1.39225560972 -10.0388957122,-2.05174510906 -13.2630665978,-1.61208544283 z m 6.85136313203,6.04532041062 c 3.15089427462,0.439659666227 8.28025704727,2.27157494217 10.5518319894,3.73710716293 c 3.62719224637,2.38148985873 5.01944785609,3.48063902429 6.04532041062,4.72634141194 c 1.09914916557,1.3556173042 1.09914916557,1.3556173042 0.293106444151,1.86855358146 c -0.476297971745,0.293106444151 -5.93540549406,3.1142559691 -12.2005557378,6.30178854925 c -6.22851193821,3.18753258014 -12.8234069316,6.55825668788 -14.6553222076,7.51085263137 c -1.79527697043,0.952595943491 -6.4117034658,3.33408580222 -10.2587255453,5.31255430024 c -3.81038377396,1.97846849802 -7.84059738104,4.0668519126 -8.90310824109,4.6530648009 c -1.06251086005,0.549574582783 -2.1250217201,1.02587255453 -2.41812816425,1.02587255453 c -0.32974474967,0 -0.622851193821,-1.02587255453 -0.952595943491,-3.33408580222 c -0.403021360708,-2.7112346084 -0.403021360708,-4.10349021811 -0.0366383055188,-7.14446957618 c 0.439659666227,-3.81038377396 0.915957637972,-5.60566074439 2.23493663665,-8.46344857486 c 0.403021360708,-0.879319332453 0.732766110378,-1.64872374835 0.732766110378,-1.72200035939 c 0,-0.403021360708 2.30821324769,-3.55391563533 3.84702207948,-5.27591599472 c 2.34485155321,-2.60131969184 5.56902243887,-4.94617124505 9.15957637972,-6.63153329892 c 3.37072410774,-1.61208544283 5.12936277264,-2.16166002561 8.39017196382,-2.56468138632 c 3.2974474967,-0.439659666227 4.98280955057,-0.439659666227 8.17034213071,0 z m 21.8364300893,15.9743012062 c 2.19829833113,4.35995835675 3.04097935807,9.74578926802 2.45476646976,15.2048967903 c -0.696127804859,6.52161838236 -3.48063902429,12.2371940433 -8.24361874175,16.9635354552 c -3.26080919118,3.26080919118 -6.63153329892,5.31255430024 -11.3578747109,6.96127804859 c -2.27157494217,0.769404415897 -3.84702207948,1.02587255453 -7.21774618722,1.1724257766 c -8.68327840797,0.403021360708 -15.4980032345,-2.05174510906 -21.3601321175,-7.76732077 c -2.82114952495,-2.7112346084 -6.04532041062,-7.03455465963 -6.04532041062,-8.06042721415 c 0,-0.256468138632 2.34485155321,-1.64872374835 5.2392776892,-3.1142559691 c 9.41604451835,-4.79961802297 20.8838341458,-10.6983852115 24.9873243639,-12.8234069316 c 2.23493663665,-1.13578747109 7.32766110378,-3.77374546844 11.3578747109,-5.86212888302 c 4.03021360708,-2.05174510906 7.47421432585,-3.883660385 7.69404415896,-4.0668519126 c 0.806042721415,-0.769404415897 1.64872374835,-0.293106444151 2.49140477528,1.39225560972 z"/>
</svg>