<svg xmlns="http://www.w3.org/2000/svg" width="502" height="512" fill="currentColor" viewBox="0 0 502 512">
    <path fill-rule="evenodd" d="M 338.396298153,121.095757019 c -17.707668931,17.3864683524 -17.707668931,17.3864683524 -17.707668931,32.8159924394 c 0,15.5901243763 0,15.5901243763 -45.4796226557,61.0697470319 c -39.4660340466,39.4719822055 -45.4796226557,46.1339201305 -45.4796226557,50.3571129222 c 0,2.59934542252 0.654297474775,5.68049171282 1.30264679069,6.66193792499 c 1.45729892109,2.27219668512 7.63148781943,5.51989142355 10.2308332419,5.51989142355 c 1.13609834256,0 23.0669600652,-20.7947633801 48.5667171049,-46.2945204197 c 46.455120709,-46.2885722608 46.455120709,-46.2885722608 61.884644796,-46.2885722608 c 15.2689237976,0 15.2689237976,0 32.0010946754,-16.7321708776 c 9.09473489937,-9.1006830582 16.5656224295,-17.8682692202 16.5656224295,-19.3315163001 c 0,-3.89604405434 -3.9019922132,-5.68049171282 -15.4295240869,-6.98313850351 c -16.7321708776,-2.11159639586 -16.5715705884,-1.94504794774 -17.8682692202,-17.3805201935 c -0.654297474775,-7.47088753015 -1.78444765848,-15.1083235084 -2.59934542252,-17.2139717454 c -2.59934542252,-6.98313850351 -7.63743597825,-4.38379308099 -25.9934542252,13.7997285589 M 216.084307482,130.529536974 c -29.2352008047,6.0076404502 -51.6478633952,17.7017207721 -72.1154780379,37.1938373615 c -9.1006830582,8.60698587272 -21.4371645372,25.3391567503 -27.1236044089,36.7060883348 C 100.927951922,236.097460449 97.3531084463,272.482348206 107.096192662,305.940741802 c 9.42188363672,32.6553921502 30.3772473062,62.3723938226 56.5253536617,80.0800627536 c 10.5579819793,7.3102872409 29.0746005154,15.9172731136 41.7441788906,19.3315163001 c 7.95863655681,2.27219668512 16.5715705884,2.92054600104 35.7365384404,2.92054600104 c 24.2030584078,0 25.826905777,-0.327148737387 40.4474802588,-5.3592911343 c 25.8209576181,-8.93413461009 45.4736744969,-22.7398113278 62.3664456637,-44.0163755757 c 10.7185822686,-13.4844761392 23.5547090919,-38.6630326004 28.2656509103,-55.3892553191 c 2.11159639586,-7.95863655681 2.92054600104,-16.5656224295 2.92054600104,-34.9216406764 c 0,-20.7888152212 -0.654297474775,-26.1540545145 -3.73544376508,-37.1997855204 c -2.11159639586,-6.98313850351 -5.19869084503,-15.9172731136 -6.82253821424,-19.8133171679 c -2.59934542252,-6.0076404502 -3.89604405434,-7.14968695163 -7.63148781943,-7.14968695163 c -3.24769473843,0 -7.14968695163,2.59934542252 -14.4540260337,9.90963266341 c -10.0761811116,9.90963266341 -10.0761811116,9.90963266341 -7.14968695163,18.3560182468 c 7.79208810869,22.0914620119 7.95863655681,45.3190223665 0.654297474775,67.5710846677 c -7.63743597825,22.5732628798 -21.443112696,41.0898814159 -40.9352292855,54.2472088176 c -6.0076404502,4.22319279173 -16.4050221402,9.42188363672 -23.0669600652,11.86062877 c -9.1006830582,3.24769473843 -16.2384736921,4.54439337026 -28.5868514888,5.0321423969 c -19.3315163001,0.814897764037 -31.3467972005,-1.78444765848 -49.37566671,-10.5579819793 c -9.26128334747,-4.54439337026 -15.5960725351,-9.25533518864 -26.1540545145,-19.9739174572 c -11.5334800326,-11.3728797433 -15.2689237976,-16.4109702991 -20.628214932,-27.6173015944 c -3.56889531695,-7.63148781943 -7.3102872409,-17.3805201935 -8.44638558345,-21.9249135638 c -2.59934542252,-11.2063312953 -2.27219668512,-37.0332370722 0.814897764036,-48.7273173941 c 1.29669863183,-5.3592911343 5.19869084503,-15.2689237976 8.44638558345,-21.7702614334 c 4.22319279173,-8.92818645127 9.25533518864,-15.5901243763 19.0043675628,-25.4997570396 c 10.7185822686,-10.7185822686 15.7507246655,-14.4540260337 26.9630041196,-19.8133171679 c 7.63148781943,-3.56889531695 17.8623210613,-7.47088753015 22.9004116171,-8.44638558345 c 5.68643987168,-1.30264679069 16.0778734029,-1.78444765848 27.6113534355,-1.30264679069 c 13.8056767177,0.654297474775 21.1159639586,1.78444765848 28.7533999369,4.71094181838 c 10.0702329527,3.73544376508 10.0702329527,3.73544376508 19.8133171679,-5.84704016094 c 7.3102872409,-7.14373879277 9.74308421525,-10.7185822686 9.74308421525,-14.1268772963 c 0,-5.8529883198 -5.19274268617,-9.1006830582 -25.6603573289,-15.9232212725 c -12.3424296378,-4.0566443436 -18.8437672735,-5.19274268617 -32.6494439913,-5.84704016094 c -11.045731006,-0.321200578525 -21.1159639586,0.327148737387 -28.4262511995,1.78444765848 m -0.481800867789,70.6522309579 c -19.6586650376,7.14968695163 -36.0636871779,22.7398113278 -43.0468256814,40.9352292855 c -4.54439337026,12.0152809004 -5.51989142355,30.3712991472 -2.27219668512,43.0408775225 c 3.56889531695,14.2934257444 8.11923684607,22.4186107494 18.1894697988,33.1312448591 c 6.17418889832,6.34073734645 12.3483777966,10.8851307167 20.628214932,14.6205744818 c 11.2063312953,5.19869084503 12.5089780859,5.52583958241 30.3772473062,5.52583958241 c 17.7017207721,0 19.3315163001,-0.327148737387 29.7229498313,-5.19869084503 c 12.9907789537,-6.17418889832 26.6358553822,-19.0043675628 32.6494439913,-31.025596622 c 5.35334297543,-10.7185822686 9.09473489937,-24.8514077237 9.09473489937,-34.9156925175 c 0,-8.61293403155 -2.9264941599,-22.25801046 -4.87749026651,-22.25801046 c -0.648349315913,0 -7.30433908203,5.68643987168 -14.7752266122,12.8361268232 c -11.3728797433,10.5579819793 -13.9722251658,13.966277007 -15.5960725351,20.3010661946 c -2.59934542252,9.1006830582 -11.8546806111,19.8133171679 -20.7888152212,23.8759096704 c -8.44638558345,3.89604405434 -22.4186107494,3.89604405434 -30.8649963328,0 c -7.95863655681,-3.73544376508 -16.0778734029,-12.0152809004 -19.3315163001,-19.9798656161 c -8.11328868717,-19.4921165894 3.25364289729,-44.6706730505 22.25801046,-49.37566671 c 5.84704016094,-1.30264679069 32.4828955431,-30.0500985687 30.2166470168,-32.3222952538 c -0.814897764037,-0.975498053305 -8.77353432082,-1.78444765848 -17.3864683524,-1.9509961066 c -12.1818293486,-0.321200578525 -17.7017207721,0.327148737387 -24.1971102489,2.75994571178" clip-rule="evenodd"/>
</svg>
