<svg xmlns="http://www.w3.org/2000/svg" width="512" height="512" fill="currentColor" viewBox="0 0 512 512">
    <path d="M82.0 262.0a150.0 172.0 0 1 1 300.0 0a150.0 172.0 0 1 1 -300.0 0ZM196.0 232.0a56.0 56.0 0 1 0 112.0 0a56.0 56.0 0 1 0 -112.0 0ZM174.0 340.0a22.0 22.0 0 1 0 44.0 0a22.0 22.0 0 1 0 -44.0 0ZM252.0 366.0a16.0 16.0 0 1 0 32.0 0a16.0 16.0 0 1 0 -32.0 0ZM384.0 150.0a46.0 46.0 0 1 1 92.0 0a46.0 46.0 0 1 1 -92.0 0ZM412.0 150.0a18.0 18.0 0 1 0 36.0 0a18.0 18.0 0 1 0 -36.0 0ZM396.0 300.0a34.0 34.0 0 1 1 68.0 0a34.0 34.0 0 1 1 -68.0 0ZM417.0 300.0a13.0 13.0 0 1 0 26.0 0a13.0 13.0 0 1 0 -26.0 0Z"/>
</svg>
